<svg width="1428" height="147" viewBox="0 0 1428 147" fill="none" xmlns="http://www.w3.org/2000/svg">
<rect width="1428" height="147" fill="url(#paint0_linear_1_129)"/>
<g clip-path="url(#clip0_1_129)">
<path d="M13.99 9.25L26.99 16.75V31.75L13.99 39.25L1 31.75V16.75L13.99 9.25ZM3 17.9V30.6L13.99 36.94L24.99 30.59V17.9L13.99 11.56L3 17.9ZM0 15L12.98 7.5V0H10.98V6.35L0 12.69V14.99V15ZM0 33.5L12.98 41V49H10.98V42.15L0 35.81V33.51V33.5ZM15 0V7.5L27.99 15H28V12.69H27.99L17 6.35V0H15ZM15 49V41L27.99 33.5H28V35.81H27.99L17 42.15V49H15Z" fill="#111827"/>
</g>
<g clip-path="url(#clip1_1_129)">
<path d="M41.99 9.25L54.99 16.75V31.75L41.99 39.25L29 31.75V16.75L41.99 9.25ZM31 17.9V30.6L41.99 36.94L52.99 30.59V17.9L41.99 11.56L31 17.9ZM28 15L40.98 7.5V0H38.98V6.35L28 12.69V14.99V15ZM28 33.5L40.98 41V49H38.98V42.15L28 35.81V33.51V33.5ZM43 0V7.5L55.99 15H56V12.69H55.99L45 6.35V0H43ZM43 49V41L55.99 33.5H56V35.81H55.99L45 42.15V49H43Z" fill="#111827"/>
</g>
<g clip-path="url(#clip2_1_129)">
<path d="M69.99 9.25L82.99 16.75V31.75L69.99 39.25L57 31.75V16.75L69.99 9.25ZM59 17.9V30.6L69.99 36.94L80.99 30.59V17.9L69.99 11.56L59 17.9ZM56 15L68.98 7.5V0H66.98V6.35L56 12.69V14.99V15ZM56 33.5L68.98 41V49H66.98V42.15L56 35.81V33.51V33.5ZM71 0V7.5L83.99 15H84V12.69H83.99L73 6.35V0H71ZM71 49V41L83.99 33.5H84V35.81H83.99L73 42.15V49H71Z" fill="#111827"/>
</g>
<g clip-path="url(#clip3_1_129)">
<path d="M97.99 9.25L110.99 16.75V31.75L97.99 39.25L85 31.75V16.75L97.99 9.25ZM87 17.9V30.6L97.99 36.94L108.99 30.59V17.9L97.99 11.56L87 17.9ZM84 15L96.98 7.5V0H94.98V6.35L84 12.69V14.99V15ZM84 33.5L96.98 41V49H94.98V42.15L84 35.81V33.51V33.5ZM99 0V7.5L111.99 15H112V12.69H111.99L101 6.35V0H99ZM99 49V41L111.99 33.5H112V35.81H111.99L101 42.15V49H99Z" fill="#111827"/>
</g>
<g clip-path="url(#clip4_1_129)">
<path d="M125.99 9.25L138.99 16.75V31.75L125.99 39.25L113 31.75V16.75L125.99 9.25ZM115 17.9V30.6L125.99 36.94L136.99 30.59V17.9L125.99 11.56L115 17.9ZM112 15L124.98 7.5V0H122.98V6.35L112 12.69V14.99V15ZM112 33.5L124.98 41V49H122.98V42.15L112 35.81V33.51V33.5ZM127 0V7.5L139.99 15H140V12.69H139.99L129 6.35V0H127ZM127 49V41L139.99 33.5H140V35.81H139.99L129 42.15V49H127Z" fill="#111827"/>
</g>
<g clip-path="url(#clip5_1_129)">
<path d="M153.99 9.25L166.99 16.75V31.75L153.99 39.25L141 31.75V16.75L153.99 9.25ZM143 17.9V30.6L153.99 36.94L164.99 30.59V17.9L153.99 11.56L143 17.9ZM140 15L152.98 7.5V0H150.98V6.35L140 12.69V14.99V15ZM140 33.5L152.98 41V49H150.98V42.15L140 35.81V33.51V33.5ZM155 0V7.5L167.99 15H168V12.69H167.99L157 6.35V0H155ZM155 49V41L167.99 33.5H168V35.81H167.99L157 42.15V49H155Z" fill="#111827"/>
</g>
<g clip-path="url(#clip6_1_129)">
<path d="M181.99 9.25L194.99 16.75V31.75L181.99 39.25L169 31.75V16.75L181.99 9.25ZM171 17.9V30.6L181.99 36.94L192.99 30.59V17.9L181.99 11.56L171 17.9ZM168 15L180.98 7.5V0H178.98V6.35L168 12.69V14.99V15ZM168 33.5L180.98 41V49H178.98V42.15L168 35.81V33.51V33.5ZM183 0V7.5L195.99 15H196V12.69H195.99L185 6.35V0H183ZM183 49V41L195.99 33.5H196V35.81H195.99L185 42.15V49H183Z" fill="#111827"/>
</g>
<g clip-path="url(#clip7_1_129)">
<path d="M209.99 9.25L222.99 16.75V31.75L209.99 39.25L197 31.75V16.75L209.99 9.25ZM199 17.9V30.6L209.99 36.94L220.99 30.59V17.9L209.99 11.56L199 17.9ZM196 15L208.98 7.5V0H206.98V6.35L196 12.69V14.99V15ZM196 33.5L208.98 41V49H206.98V42.15L196 35.81V33.51V33.5ZM211 0V7.5L223.99 15H224V12.69H223.99L213 6.35V0H211ZM211 49V41L223.99 33.5H224V35.81H223.99L213 42.15V49H211Z" fill="#111827"/>
</g>
<g clip-path="url(#clip8_1_129)">
<path d="M237.99 9.25L250.99 16.75V31.75L237.99 39.25L225 31.75V16.75L237.99 9.25ZM227 17.9V30.6L237.99 36.94L248.99 30.59V17.9L237.99 11.56L227 17.9ZM224 15L236.98 7.5V0H234.98V6.35L224 12.69V14.99V15ZM224 33.5L236.98 41V49H234.98V42.15L224 35.81V33.51V33.5ZM239 0V7.5L251.99 15H252V12.69H251.99L241 6.35V0H239ZM239 49V41L251.99 33.5H252V35.81H251.99L241 42.15V49H239Z" fill="#111827"/>
</g>
<g clip-path="url(#clip9_1_129)">
<path d="M265.99 9.25L278.99 16.75V31.75L265.99 39.25L253 31.75V16.75L265.99 9.25ZM255 17.9V30.6L265.99 36.94L276.99 30.59V17.9L265.99 11.56L255 17.9ZM252 15L264.98 7.5V0H262.98V6.35L252 12.69V14.99V15ZM252 33.5L264.98 41V49H262.98V42.15L252 35.81V33.51V33.5ZM267 0V7.5L279.99 15H280V12.69H279.99L269 6.35V0H267ZM267 49V41L279.99 33.5H280V35.81H279.99L269 42.15V49H267Z" fill="#111827"/>
</g>
<g clip-path="url(#clip10_1_129)">
<path d="M293.99 9.25L306.99 16.75V31.75L293.99 39.25L281 31.75V16.75L293.99 9.25ZM283 17.9V30.6L293.99 36.94L304.99 30.59V17.9L293.99 11.56L283 17.9ZM280 15L292.98 7.5V0H290.98V6.35L280 12.69V14.99V15ZM280 33.5L292.98 41V49H290.98V42.15L280 35.81V33.51V33.5ZM295 0V7.5L307.99 15H308V12.69H307.99L297 6.35V0H295ZM295 49V41L307.99 33.5H308V35.81H307.99L297 42.15V49H295Z" fill="#111827"/>
</g>
<g clip-path="url(#clip11_1_129)">
<path d="M321.99 9.25L334.99 16.75V31.75L321.99 39.25L309 31.75V16.75L321.99 9.25ZM311 17.9V30.6L321.99 36.94L332.99 30.59V17.9L321.99 11.56L311 17.9ZM308 15L320.98 7.5V0H318.98V6.35L308 12.69V14.99V15ZM308 33.5L320.98 41V49H318.98V42.15L308 35.81V33.51V33.5ZM323 0V7.5L335.99 15H336V12.69H335.99L325 6.35V0H323ZM323 49V41L335.99 33.5H336V35.81H335.99L325 42.15V49H323Z" fill="#111827"/>
</g>
<g clip-path="url(#clip12_1_129)">
<path d="M349.99 9.25L362.99 16.75V31.75L349.99 39.25L337 31.75V16.75L349.99 9.25ZM339 17.9V30.6L349.99 36.94L360.99 30.59V17.9L349.99 11.56L339 17.9ZM336 15L348.98 7.5V0H346.98V6.35L336 12.69V14.99V15ZM336 33.5L348.98 41V49H346.98V42.15L336 35.81V33.51V33.5ZM351 0V7.5L363.99 15H364V12.69H363.99L353 6.35V0H351ZM351 49V41L363.99 33.5H364V35.81H363.99L353 42.15V49H351Z" fill="#111827"/>
</g>
<g clip-path="url(#clip13_1_129)">
<path d="M377.99 9.25L390.99 16.75V31.75L377.99 39.25L365 31.75V16.75L377.99 9.25ZM367 17.9V30.6L377.99 36.94L388.99 30.59V17.9L377.99 11.56L367 17.9ZM364 15L376.98 7.5V0H374.98V6.35L364 12.69V14.99V15ZM364 33.5L376.98 41V49H374.98V42.15L364 35.81V33.51V33.5ZM379 0V7.5L391.99 15H392V12.69H391.99L381 6.35V0H379ZM379 49V41L391.99 33.5H392V35.81H391.99L381 42.15V49H379Z" fill="#111827"/>
</g>
<g clip-path="url(#clip14_1_129)">
<path d="M405.99 9.25L418.99 16.75V31.75L405.99 39.25L393 31.75V16.75L405.99 9.25ZM395 17.9V30.6L405.99 36.94L416.99 30.59V17.9L405.99 11.56L395 17.9ZM392 15L404.98 7.5V0H402.98V6.35L392 12.69V14.99V15ZM392 33.5L404.98 41V49H402.98V42.15L392 35.81V33.51V33.5ZM407 0V7.5L419.99 15H420V12.69H419.99L409 6.35V0H407ZM407 49V41L419.99 33.5H420V35.81H419.99L409 42.15V49H407Z" fill="#111827"/>
</g>
<g clip-path="url(#clip15_1_129)">
<path d="M433.99 9.25L446.99 16.75V31.75L433.99 39.25L421 31.75V16.75L433.99 9.25ZM423 17.9V30.6L433.99 36.94L444.99 30.59V17.9L433.99 11.56L423 17.9ZM420 15L432.98 7.5V0H430.98V6.35L420 12.69V14.99V15ZM420 33.5L432.98 41V49H430.98V42.15L420 35.81V33.51V33.5ZM435 0V7.5L447.99 15H448V12.69H447.99L437 6.35V0H435ZM435 49V41L447.99 33.5H448V35.81H447.99L437 42.15V49H435Z" fill="#111827"/>
</g>
<g clip-path="url(#clip16_1_129)">
<path d="M461.99 9.25L474.99 16.75V31.75L461.99 39.25L449 31.75V16.75L461.99 9.25ZM451 17.9V30.6L461.99 36.94L472.99 30.59V17.9L461.99 11.56L451 17.9ZM448 15L460.98 7.5V0H458.98V6.35L448 12.69V14.99V15ZM448 33.5L460.98 41V49H458.98V42.15L448 35.81V33.51V33.5ZM463 0V7.5L475.99 15H476V12.69H475.99L465 6.35V0H463ZM463 49V41L475.99 33.5H476V35.81H475.99L465 42.15V49H463Z" fill="#111827"/>
</g>
<g clip-path="url(#clip17_1_129)">
<path d="M489.99 9.25L502.99 16.75V31.75L489.99 39.25L477 31.75V16.75L489.99 9.25ZM479 17.9V30.6L489.99 36.94L500.99 30.59V17.9L489.99 11.56L479 17.9ZM476 15L488.98 7.5V0H486.98V6.35L476 12.69V14.99V15ZM476 33.5L488.98 41V49H486.98V42.15L476 35.81V33.51V33.5ZM491 0V7.5L503.99 15H504V12.69H503.99L493 6.35V0H491ZM491 49V41L503.99 33.5H504V35.81H503.99L493 42.15V49H491Z" fill="#111827"/>
</g>
<g clip-path="url(#clip18_1_129)">
<path d="M517.99 9.25L530.99 16.75V31.75L517.99 39.25L505 31.75V16.75L517.99 9.25ZM507 17.9V30.6L517.99 36.94L528.99 30.59V17.9L517.99 11.56L507 17.9ZM504 15L516.98 7.5V0H514.98V6.35L504 12.69V14.99V15ZM504 33.5L516.98 41V49H514.98V42.15L504 35.81V33.51V33.5ZM519 0V7.5L531.99 15H532V12.69H531.99L521 6.35V0H519ZM519 49V41L531.99 33.5H532V35.81H531.99L521 42.15V49H519Z" fill="#111827"/>
</g>
<g clip-path="url(#clip19_1_129)">
<path d="M545.99 9.25L558.99 16.75V31.75L545.99 39.25L533 31.75V16.75L545.99 9.25ZM535 17.9V30.6L545.99 36.94L556.99 30.59V17.9L545.99 11.56L535 17.9ZM532 15L544.98 7.5V0H542.98V6.35L532 12.69V14.99V15ZM532 33.5L544.98 41V49H542.98V42.15L532 35.81V33.51V33.5ZM547 0V7.5L559.99 15H560V12.69H559.99L549 6.35V0H547ZM547 49V41L559.99 33.5H560V35.81H559.99L549 42.15V49H547Z" fill="#111827"/>
</g>
<g clip-path="url(#clip20_1_129)">
<path d="M573.99 9.25L586.99 16.75V31.75L573.99 39.25L561 31.75V16.75L573.99 9.25ZM563 17.9V30.6L573.99 36.94L584.99 30.59V17.9L573.99 11.56L563 17.9ZM560 15L572.98 7.5V0H570.98V6.35L560 12.69V14.99V15ZM560 33.5L572.98 41V49H570.98V42.15L560 35.81V33.51V33.5ZM575 0V7.5L587.99 15H588V12.69H587.99L577 6.35V0H575ZM575 49V41L587.99 33.5H588V35.81H587.99L577 42.15V49H575Z" fill="#111827"/>
</g>
<g clip-path="url(#clip21_1_129)">
<path d="M601.99 9.25L614.99 16.75V31.75L601.99 39.25L589 31.75V16.75L601.99 9.25ZM591 17.9V30.6L601.99 36.94L612.99 30.59V17.9L601.99 11.56L591 17.9ZM588 15L600.98 7.5V0H598.98V6.35L588 12.69V14.99V15ZM588 33.5L600.98 41V49H598.98V42.15L588 35.81V33.51V33.5ZM603 0V7.5L615.99 15H616V12.69H615.99L605 6.35V0H603ZM603 49V41L615.99 33.5H616V35.81H615.99L605 42.15V49H603Z" fill="#111827"/>
</g>
<g clip-path="url(#clip22_1_129)">
<path d="M629.99 9.25L642.99 16.75V31.75L629.99 39.25L617 31.75V16.75L629.99 9.25ZM619 17.9V30.6L629.99 36.94L640.99 30.59V17.9L629.99 11.56L619 17.9ZM616 15L628.98 7.5V0H626.98V6.35L616 12.69V14.99V15ZM616 33.5L628.98 41V49H626.98V42.15L616 35.81V33.51V33.5ZM631 0V7.5L643.99 15H644V12.69H643.99L633 6.35V0H631ZM631 49V41L643.99 33.5H644V35.81H643.99L633 42.15V49H631Z" fill="#111827"/>
</g>
<g clip-path="url(#clip23_1_129)">
<path d="M657.99 9.25L670.99 16.75V31.75L657.99 39.25L645 31.75V16.75L657.99 9.25ZM647 17.9V30.6L657.99 36.94L668.99 30.59V17.9L657.99 11.56L647 17.9ZM644 15L656.98 7.5V0H654.98V6.35L644 12.69V14.99V15ZM644 33.5L656.98 41V49H654.98V42.15L644 35.81V33.51V33.5ZM659 0V7.5L671.99 15H672V12.69H671.99L661 6.35V0H659ZM659 49V41L671.99 33.5H672V35.81H671.99L661 42.15V49H659Z" fill="#111827"/>
</g>
<g clip-path="url(#clip24_1_129)">
<path d="M685.99 9.25L698.99 16.75V31.75L685.99 39.25L673 31.75V16.75L685.99 9.25ZM675 17.9V30.6L685.99 36.94L696.99 30.59V17.9L685.99 11.56L675 17.9ZM672 15L684.98 7.5V0H682.98V6.35L672 12.69V14.99V15ZM672 33.5L684.98 41V49H682.98V42.15L672 35.81V33.51V33.5ZM687 0V7.5L699.99 15H700V12.69H699.99L689 6.35V0H687ZM687 49V41L699.99 33.5H700V35.81H699.99L689 42.15V49H687Z" fill="#111827"/>
</g>
<g clip-path="url(#clip25_1_129)">
<path d="M713.99 9.25L726.99 16.75V31.75L713.99 39.25L701 31.75V16.75L713.99 9.25ZM703 17.9V30.6L713.99 36.94L724.99 30.59V17.9L713.99 11.56L703 17.9ZM700 15L712.98 7.5V0H710.98V6.35L700 12.69V14.99V15ZM700 33.5L712.98 41V49H710.98V42.15L700 35.81V33.51V33.5ZM715 0V7.5L727.99 15H728V12.69H727.99L717 6.35V0H715ZM715 49V41L727.99 33.5H728V35.81H727.99L717 42.15V49H715Z" fill="#111827"/>
</g>
<g clip-path="url(#clip26_1_129)">
<path d="M741.99 9.25L754.99 16.75V31.75L741.99 39.25L729 31.75V16.75L741.99 9.25ZM731 17.9V30.6L741.99 36.94L752.99 30.59V17.9L741.99 11.56L731 17.9ZM728 15L740.98 7.5V0H738.98V6.35L728 12.69V14.99V15ZM728 33.5L740.98 41V49H738.98V42.15L728 35.81V33.51V33.5ZM743 0V7.5L755.99 15H756V12.69H755.99L745 6.35V0H743ZM743 49V41L755.99 33.5H756V35.81H755.99L745 42.15V49H743Z" fill="#111827"/>
</g>
<g clip-path="url(#clip27_1_129)">
<path d="M769.99 9.25L782.99 16.75V31.75L769.99 39.25L757 31.75V16.75L769.99 9.25ZM759 17.9V30.6L769.99 36.94L780.99 30.59V17.9L769.99 11.56L759 17.9ZM756 15L768.98 7.5V0H766.98V6.35L756 12.69V14.99V15ZM756 33.5L768.98 41V49H766.98V42.15L756 35.81V33.51V33.5ZM771 0V7.5L783.99 15H784V12.69H783.99L773 6.35V0H771ZM771 49V41L783.99 33.5H784V35.81H783.99L773 42.15V49H771Z" fill="#111827"/>
</g>
<g clip-path="url(#clip28_1_129)">
<path d="M797.99 9.25L810.99 16.75V31.75L797.99 39.25L785 31.75V16.75L797.99 9.25ZM787 17.9V30.6L797.99 36.94L808.99 30.59V17.9L797.99 11.56L787 17.9ZM784 15L796.98 7.5V0H794.98V6.35L784 12.69V14.99V15ZM784 33.5L796.98 41V49H794.98V42.15L784 35.81V33.51V33.5ZM799 0V7.5L811.99 15H812V12.69H811.99L801 6.35V0H799ZM799 49V41L811.99 33.5H812V35.81H811.99L801 42.15V49H799Z" fill="#111827"/>
</g>
<g clip-path="url(#clip29_1_129)">
<path d="M825.99 9.25L838.99 16.75V31.75L825.99 39.25L813 31.75V16.75L825.99 9.25ZM815 17.9V30.6L825.99 36.94L836.99 30.59V17.9L825.99 11.56L815 17.9ZM812 15L824.98 7.5V0H822.98V6.35L812 12.69V14.99V15ZM812 33.5L824.98 41V49H822.98V42.15L812 35.81V33.51V33.5ZM827 0V7.5L839.99 15H840V12.69H839.99L829 6.35V0H827ZM827 49V41L839.99 33.5H840V35.81H839.99L829 42.15V49H827Z" fill="#111827"/>
</g>
<g clip-path="url(#clip30_1_129)">
<path d="M853.99 9.25L866.99 16.75V31.75L853.99 39.25L841 31.75V16.75L853.99 9.25ZM843 17.9V30.6L853.99 36.94L864.99 30.59V17.9L853.99 11.56L843 17.9ZM840 15L852.98 7.5V0H850.98V6.35L840 12.69V14.99V15ZM840 33.5L852.98 41V49H850.98V42.15L840 35.81V33.51V33.5ZM855 0V7.5L867.99 15H868V12.69H867.99L857 6.35V0H855ZM855 49V41L867.99 33.5H868V35.81H867.99L857 42.15V49H855Z" fill="#111827"/>
</g>
<g clip-path="url(#clip31_1_129)">
<path d="M881.99 9.25L894.99 16.75V31.75L881.99 39.25L869 31.75V16.75L881.99 9.25ZM871 17.9V30.6L881.99 36.94L892.99 30.59V17.9L881.99 11.56L871 17.9ZM868 15L880.98 7.5V0H878.98V6.35L868 12.69V14.99V15ZM868 33.5L880.98 41V49H878.98V42.15L868 35.81V33.51V33.5ZM883 0V7.5L895.99 15H896V12.69H895.99L885 6.35V0H883ZM883 49V41L895.99 33.5H896V35.81H895.99L885 42.15V49H883Z" fill="#111827"/>
</g>
<g clip-path="url(#clip32_1_129)">
<path d="M909.99 9.25L922.99 16.75V31.75L909.99 39.25L897 31.75V16.75L909.99 9.25ZM899 17.9V30.6L909.99 36.94L920.99 30.59V17.9L909.99 11.56L899 17.9ZM896 15L908.98 7.5V0H906.98V6.35L896 12.69V14.99V15ZM896 33.5L908.98 41V49H906.98V42.15L896 35.81V33.51V33.5ZM911 0V7.5L923.99 15H924V12.69H923.99L913 6.35V0H911ZM911 49V41L923.99 33.5H924V35.81H923.99L913 42.15V49H911Z" fill="#111827"/>
</g>
<g clip-path="url(#clip33_1_129)">
<path d="M937.99 9.25L950.99 16.75V31.75L937.99 39.25L925 31.75V16.75L937.99 9.25ZM927 17.9V30.6L937.99 36.94L948.99 30.59V17.9L937.99 11.56L927 17.9ZM924 15L936.98 7.5V0H934.98V6.35L924 12.69V14.99V15ZM924 33.5L936.98 41V49H934.98V42.15L924 35.81V33.51V33.5ZM939 0V7.5L951.99 15H952V12.69H951.99L941 6.35V0H939ZM939 49V41L951.99 33.5H952V35.81H951.99L941 42.15V49H939Z" fill="#111827"/>
</g>
<g clip-path="url(#clip34_1_129)">
<path d="M965.99 9.25L978.99 16.75V31.75L965.99 39.25L953 31.75V16.75L965.99 9.25ZM955 17.9V30.6L965.99 36.94L976.99 30.59V17.9L965.99 11.56L955 17.9ZM952 15L964.98 7.5V0H962.98V6.35L952 12.69V14.99V15ZM952 33.5L964.98 41V49H962.98V42.15L952 35.81V33.51V33.5ZM967 0V7.5L979.99 15H980V12.69H979.99L969 6.35V0H967ZM967 49V41L979.99 33.5H980V35.81H979.99L969 42.15V49H967Z" fill="#111827"/>
</g>
<g clip-path="url(#clip35_1_129)">
<path d="M993.99 9.25L1006.99 16.75V31.75L993.99 39.25L981 31.75V16.75L993.99 9.25ZM983 17.9V30.6L993.99 36.94L1004.99 30.59V17.9L993.99 11.56L983 17.9ZM980 15L992.98 7.5V0H990.98V6.35L980 12.69V14.99V15ZM980 33.5L992.98 41V49H990.98V42.15L980 35.81V33.51V33.5ZM995 0V7.5L1007.99 15H1008V12.69H1007.99L997 6.35V0H995ZM995 49V41L1007.99 33.5H1008V35.81H1007.99L997 42.15V49H995Z" fill="#111827"/>
</g>
<g clip-path="url(#clip36_1_129)">
<path d="M1021.99 9.25L1034.99 16.75V31.75L1021.99 39.25L1009 31.75V16.75L1021.99 9.25ZM1011 17.9V30.6L1021.99 36.94L1032.99 30.59V17.9L1021.99 11.56L1011 17.9ZM1008 15L1020.98 7.5V0H1018.98V6.35L1008 12.69V14.99V15ZM1008 33.5L1020.98 41V49H1018.98V42.15L1008 35.81V33.51V33.5ZM1023 0V7.5L1035.99 15H1036V12.69H1035.99L1025 6.35V0H1023ZM1023 49V41L1035.99 33.5H1036V35.81H1035.99L1025 42.15V49H1023Z" fill="#111827"/>
</g>
<g clip-path="url(#clip37_1_129)">
<path d="M1049.99 9.25L1062.99 16.75V31.75L1049.99 39.25L1037 31.75V16.75L1049.99 9.25ZM1039 17.9V30.6L1049.99 36.94L1060.99 30.59V17.9L1049.99 11.56L1039 17.9ZM1036 15L1048.98 7.5V0H1046.98V6.35L1036 12.69V14.99V15ZM1036 33.5L1048.98 41V49H1046.98V42.15L1036 35.81V33.51V33.5ZM1051 0V7.5L1063.99 15H1064V12.69H1063.99L1053 6.35V0H1051ZM1051 49V41L1063.99 33.5H1064V35.81H1063.99L1053 42.15V49H1051Z" fill="#111827"/>
</g>
<g clip-path="url(#clip38_1_129)">
<path d="M1077.99 9.25L1090.99 16.75V31.75L1077.99 39.25L1065 31.75V16.75L1077.99 9.25ZM1067 17.9V30.6L1077.99 36.94L1088.99 30.59V17.9L1077.99 11.56L1067 17.9ZM1064 15L1076.98 7.5V0H1074.98V6.35L1064 12.69V14.99V15ZM1064 33.5L1076.98 41V49H1074.98V42.15L1064 35.81V33.51V33.5ZM1079 0V7.5L1091.99 15H1092V12.69H1091.99L1081 6.35V0H1079ZM1079 49V41L1091.99 33.5H1092V35.81H1091.99L1081 42.15V49H1079Z" fill="#111827"/>
</g>
<g clip-path="url(#clip39_1_129)">
<path d="M1105.99 9.25L1118.99 16.75V31.75L1105.99 39.25L1093 31.75V16.75L1105.99 9.25ZM1095 17.9V30.6L1105.99 36.94L1116.99 30.59V17.9L1105.99 11.56L1095 17.9ZM1092 15L1104.98 7.5V0H1102.98V6.35L1092 12.69V14.99V15ZM1092 33.5L1104.98 41V49H1102.98V42.15L1092 35.81V33.51V33.5ZM1107 0V7.5L1119.99 15H1120V12.69H1119.99L1109 6.35V0H1107ZM1107 49V41L1119.99 33.5H1120V35.81H1119.99L1109 42.15V49H1107Z" fill="#111827"/>
</g>
<g clip-path="url(#clip40_1_129)">
<path d="M1133.99 9.25L1146.99 16.75V31.75L1133.99 39.25L1121 31.75V16.75L1133.99 9.25ZM1123 17.9V30.6L1133.99 36.94L1144.99 30.59V17.9L1133.99 11.56L1123 17.9ZM1120 15L1132.98 7.5V0H1130.98V6.35L1120 12.69V14.99V15ZM1120 33.5L1132.98 41V49H1130.98V42.15L1120 35.81V33.51V33.5ZM1135 0V7.5L1147.99 15H1148V12.69H1147.99L1137 6.35V0H1135ZM1135 49V41L1147.99 33.5H1148V35.81H1147.99L1137 42.15V49H1135Z" fill="#111827"/>
</g>
<g clip-path="url(#clip41_1_129)">
<path d="M1161.99 9.25L1174.99 16.75V31.75L1161.99 39.25L1149 31.75V16.75L1161.99 9.25ZM1151 17.9V30.6L1161.99 36.94L1172.99 30.59V17.9L1161.99 11.56L1151 17.9ZM1148 15L1160.98 7.5V0H1158.98V6.35L1148 12.69V14.99V15ZM1148 33.5L1160.98 41V49H1158.98V42.15L1148 35.81V33.51V33.5ZM1163 0V7.5L1175.99 15H1176V12.69H1175.99L1165 6.35V0H1163ZM1163 49V41L1175.99 33.5H1176V35.81H1175.99L1165 42.15V49H1163Z" fill="#111827"/>
</g>
<g clip-path="url(#clip42_1_129)">
<path d="M1189.99 9.25L1202.99 16.75V31.75L1189.99 39.25L1177 31.75V16.75L1189.99 9.25ZM1179 17.9V30.6L1189.99 36.94L1200.99 30.59V17.9L1189.99 11.56L1179 17.9ZM1176 15L1188.98 7.5V0H1186.98V6.35L1176 12.69V14.99V15ZM1176 33.5L1188.98 41V49H1186.98V42.15L1176 35.81V33.51V33.5ZM1191 0V7.5L1203.99 15H1204V12.69H1203.99L1193 6.35V0H1191ZM1191 49V41L1203.99 33.5H1204V35.81H1203.99L1193 42.15V49H1191Z" fill="#111827"/>
</g>
<g clip-path="url(#clip43_1_129)">
<path d="M1217.99 9.25L1230.99 16.75V31.75L1217.99 39.25L1205 31.75V16.75L1217.99 9.25ZM1207 17.9V30.6L1217.99 36.94L1228.99 30.59V17.9L1217.99 11.56L1207 17.9ZM1204 15L1216.98 7.5V0H1214.98V6.35L1204 12.69V14.99V15ZM1204 33.5L1216.98 41V49H1214.98V42.15L1204 35.81V33.51V33.5ZM1219 0V7.5L1231.99 15H1232V12.69H1231.99L1221 6.35V0H1219ZM1219 49V41L1231.99 33.5H1232V35.81H1231.99L1221 42.15V49H1219Z" fill="#111827"/>
</g>
<g clip-path="url(#clip44_1_129)">
<path d="M1245.99 9.25L1258.99 16.75V31.75L1245.99 39.25L1233 31.75V16.75L1245.99 9.25ZM1235 17.9V30.6L1245.99 36.94L1256.99 30.59V17.9L1245.99 11.56L1235 17.9ZM1232 15L1244.98 7.5V0H1242.98V6.35L1232 12.69V14.99V15ZM1232 33.5L1244.98 41V49H1242.98V42.15L1232 35.81V33.51V33.5ZM1247 0V7.5L1259.99 15H1260V12.69H1259.99L1249 6.35V0H1247ZM1247 49V41L1259.99 33.5H1260V35.81H1259.99L1249 42.15V49H1247Z" fill="#111827"/>
</g>
<g clip-path="url(#clip45_1_129)">
<path d="M1273.99 9.25L1286.99 16.75V31.75L1273.99 39.25L1261 31.75V16.75L1273.99 9.25ZM1263 17.9V30.6L1273.99 36.94L1284.99 30.59V17.9L1273.99 11.56L1263 17.9ZM1260 15L1272.98 7.5V0H1270.98V6.35L1260 12.69V14.99V15ZM1260 33.5L1272.98 41V49H1270.98V42.15L1260 35.81V33.51V33.5ZM1275 0V7.5L1287.99 15H1288V12.69H1287.99L1277 6.35V0H1275ZM1275 49V41L1287.99 33.5H1288V35.81H1287.99L1277 42.15V49H1275Z" fill="#111827"/>
</g>
<g clip-path="url(#clip46_1_129)">
<path d="M1301.99 9.25L1314.99 16.75V31.75L1301.99 39.25L1289 31.75V16.75L1301.99 9.25ZM1291 17.9V30.6L1301.99 36.94L1312.99 30.59V17.9L1301.99 11.56L1291 17.9ZM1288 15L1300.98 7.5V0H1298.98V6.35L1288 12.69V14.99V15ZM1288 33.5L1300.98 41V49H1298.98V42.15L1288 35.81V33.51V33.5ZM1303 0V7.5L1315.99 15H1316V12.69H1315.99L1305 6.35V0H1303ZM1303 49V41L1315.99 33.5H1316V35.81H1315.99L1305 42.15V49H1303Z" fill="#111827"/>
</g>
<g clip-path="url(#clip47_1_129)">
<path d="M1329.99 9.25L1342.99 16.75V31.75L1329.99 39.25L1317 31.75V16.75L1329.99 9.25ZM1319 17.9V30.6L1329.99 36.94L1340.99 30.59V17.9L1329.99 11.56L1319 17.9ZM1316 15L1328.98 7.5V0H1326.98V6.35L1316 12.69V14.99V15ZM1316 33.5L1328.98 41V49H1326.98V42.15L1316 35.81V33.51V33.5ZM1331 0V7.5L1343.99 15H1344V12.69H1343.99L1333 6.35V0H1331ZM1331 49V41L1343.99 33.5H1344V35.81H1343.99L1333 42.15V49H1331Z" fill="#111827"/>
</g>
<g clip-path="url(#clip48_1_129)">
<path d="M1357.99 9.25L1370.99 16.75V31.75L1357.99 39.25L1345 31.75V16.75L1357.99 9.25ZM1347 17.9V30.6L1357.99 36.94L1368.99 30.59V17.9L1357.99 11.56L1347 17.9ZM1344 15L1356.98 7.5V0H1354.98V6.35L1344 12.69V14.99V15ZM1344 33.5L1356.98 41V49H1354.98V42.15L1344 35.81V33.51V33.5ZM1359 0V7.5L1371.99 15H1372V12.69H1371.99L1361 6.35V0H1359ZM1359 49V41L1371.99 33.5H1372V35.81H1371.99L1361 42.15V49H1359Z" fill="#111827"/>
</g>
<g clip-path="url(#clip49_1_129)">
<path d="M1385.99 9.25L1398.99 16.75V31.75L1385.99 39.25L1373 31.75V16.75L1385.99 9.25ZM1375 17.9V30.6L1385.99 36.94L1396.99 30.59V17.9L1385.99 11.56L1375 17.9ZM1372 15L1384.98 7.5V0H1382.98V6.35L1372 12.69V14.99V15ZM1372 33.5L1384.98 41V49H1382.98V42.15L1372 35.81V33.51V33.5ZM1387 0V7.5L1399.99 15H1400V12.69H1399.99L1389 6.35V0H1387ZM1387 49V41L1399.99 33.5H1400V35.81H1399.99L1389 42.15V49H1387Z" fill="#111827"/>
</g>
<g clip-path="url(#clip50_1_129)">
<path d="M1413.99 9.25L1426.99 16.75V31.75L1413.99 39.25L1401 31.75V16.75L1413.99 9.25ZM1403 17.9V30.6L1413.99 36.94L1424.99 30.59V17.9L1413.99 11.56L1403 17.9ZM1400 15L1412.98 7.5V0H1410.98V6.35L1400 12.69V14.99V15ZM1400 33.5L1412.98 41V49H1410.98V42.15L1400 35.81V33.51V33.5ZM1415 0V7.5L1427.99 15H1428V12.69H1427.99L1417 6.35V0H1415ZM1415 49V41L1427.99 33.5H1428V35.81H1427.99L1417 42.15V49H1415Z" fill="#111827"/>
</g>
<g clip-path="url(#clip51_1_129)">
<path d="M13.99 58.25L26.99 65.75V80.75L13.99 88.25L1 80.75V65.75L13.99 58.25ZM3 66.9V79.6L13.99 85.94L24.99 79.59V66.9L13.99 60.56L3 66.9ZM0 64L12.98 56.5V49H10.98V55.35L0 61.69V63.99V64ZM0 82.5L12.98 90V98H10.98V91.15L0 84.81V82.51V82.5ZM15 49V56.5L27.99 64H28V61.69H27.99L17 55.35V49H15ZM15 98V90L27.99 82.5H28V84.81H27.99L17 91.15V98H15Z" fill="#111827"/>
</g>
<g clip-path="url(#clip52_1_129)">
<path d="M41.99 58.25L54.99 65.75V80.75L41.99 88.25L29 80.75V65.75L41.99 58.25ZM31 66.9V79.6L41.99 85.94L52.99 79.59V66.9L41.99 60.56L31 66.9ZM28 64L40.98 56.5V49H38.98V55.35L28 61.69V63.99V64ZM28 82.5L40.98 90V98H38.98V91.15L28 84.81V82.51V82.5ZM43 49V56.5L55.99 64H56V61.69H55.99L45 55.35V49H43ZM43 98V90L55.99 82.5H56V84.81H55.99L45 91.15V98H43Z" fill="#111827"/>
</g>
<g clip-path="url(#clip53_1_129)">
<path d="M69.99 58.25L82.99 65.75V80.75L69.99 88.25L57 80.75V65.75L69.99 58.25ZM59 66.9V79.6L69.99 85.94L80.99 79.59V66.9L69.99 60.56L59 66.9ZM56 64L68.98 56.5V49H66.98V55.35L56 61.69V63.99V64ZM56 82.5L68.98 90V98H66.98V91.15L56 84.81V82.51V82.5ZM71 49V56.5L83.99 64H84V61.69H83.99L73 55.35V49H71ZM71 98V90L83.99 82.5H84V84.81H83.99L73 91.15V98H71Z" fill="#111827"/>
</g>
<g clip-path="url(#clip54_1_129)">
<path d="M97.99 58.25L110.99 65.75V80.75L97.99 88.25L85 80.75V65.75L97.99 58.25ZM87 66.9V79.6L97.99 85.94L108.99 79.59V66.9L97.99 60.56L87 66.9ZM84 64L96.98 56.5V49H94.98V55.35L84 61.69V63.99V64ZM84 82.5L96.98 90V98H94.98V91.15L84 84.81V82.51V82.5ZM99 49V56.5L111.99 64H112V61.69H111.99L101 55.35V49H99ZM99 98V90L111.99 82.5H112V84.81H111.99L101 91.15V98H99Z" fill="#111827"/>
</g>
<g clip-path="url(#clip55_1_129)">
<path d="M125.99 58.25L138.99 65.75V80.75L125.99 88.25L113 80.75V65.75L125.99 58.25ZM115 66.9V79.6L125.99 85.94L136.99 79.59V66.9L125.99 60.56L115 66.9ZM112 64L124.98 56.5V49H122.98V55.35L112 61.69V63.99V64ZM112 82.5L124.98 90V98H122.98V91.15L112 84.81V82.51V82.5ZM127 49V56.5L139.99 64H140V61.69H139.99L129 55.35V49H127ZM127 98V90L139.99 82.5H140V84.81H139.99L129 91.15V98H127Z" fill="#111827"/>
</g>
<g clip-path="url(#clip56_1_129)">
<path d="M153.99 58.25L166.99 65.75V80.75L153.99 88.25L141 80.75V65.75L153.99 58.25ZM143 66.9V79.6L153.99 85.94L164.99 79.59V66.9L153.99 60.56L143 66.9ZM140 64L152.98 56.5V49H150.98V55.35L140 61.69V63.99V64ZM140 82.5L152.98 90V98H150.98V91.15L140 84.81V82.51V82.5ZM155 49V56.5L167.99 64H168V61.69H167.99L157 55.35V49H155ZM155 98V90L167.99 82.5H168V84.81H167.99L157 91.15V98H155Z" fill="#111827"/>
</g>
<g clip-path="url(#clip57_1_129)">
<path d="M181.99 58.25L194.99 65.75V80.75L181.99 88.25L169 80.75V65.75L181.99 58.25ZM171 66.9V79.6L181.99 85.94L192.99 79.59V66.9L181.99 60.56L171 66.9ZM168 64L180.98 56.5V49H178.98V55.35L168 61.69V63.99V64ZM168 82.5L180.98 90V98H178.98V91.15L168 84.81V82.51V82.5ZM183 49V56.5L195.99 64H196V61.69H195.99L185 55.35V49H183ZM183 98V90L195.99 82.5H196V84.81H195.99L185 91.15V98H183Z" fill="#111827"/>
</g>
<g clip-path="url(#clip58_1_129)">
<path d="M209.99 58.25L222.99 65.75V80.75L209.99 88.25L197 80.75V65.75L209.99 58.25ZM199 66.9V79.6L209.99 85.94L220.99 79.59V66.9L209.99 60.56L199 66.9ZM196 64L208.98 56.5V49H206.98V55.35L196 61.69V63.99V64ZM196 82.5L208.98 90V98H206.98V91.15L196 84.81V82.51V82.5ZM211 49V56.5L223.99 64H224V61.69H223.99L213 55.35V49H211ZM211 98V90L223.99 82.5H224V84.81H223.99L213 91.15V98H211Z" fill="#111827"/>
</g>
<g clip-path="url(#clip59_1_129)">
<path d="M237.99 58.25L250.99 65.75V80.75L237.99 88.25L225 80.75V65.75L237.99 58.25ZM227 66.9V79.6L237.99 85.94L248.99 79.59V66.9L237.99 60.56L227 66.9ZM224 64L236.98 56.5V49H234.98V55.35L224 61.69V63.99V64ZM224 82.5L236.98 90V98H234.98V91.15L224 84.81V82.51V82.5ZM239 49V56.5L251.99 64H252V61.69H251.99L241 55.35V49H239ZM239 98V90L251.99 82.5H252V84.81H251.99L241 91.15V98H239Z" fill="#111827"/>
</g>
<g clip-path="url(#clip60_1_129)">
<path d="M265.99 58.25L278.99 65.75V80.75L265.99 88.25L253 80.75V65.75L265.99 58.25ZM255 66.9V79.6L265.99 85.94L276.99 79.59V66.9L265.99 60.56L255 66.9ZM252 64L264.98 56.5V49H262.98V55.35L252 61.69V63.99V64ZM252 82.5L264.98 90V98H262.98V91.15L252 84.81V82.51V82.5ZM267 49V56.5L279.99 64H280V61.69H279.99L269 55.35V49H267ZM267 98V90L279.99 82.5H280V84.81H279.99L269 91.15V98H267Z" fill="#111827"/>
</g>
<g clip-path="url(#clip61_1_129)">
<path d="M293.99 58.25L306.99 65.75V80.75L293.99 88.25L281 80.75V65.75L293.99 58.25ZM283 66.9V79.6L293.99 85.94L304.99 79.59V66.9L293.99 60.56L283 66.9ZM280 64L292.98 56.5V49H290.98V55.35L280 61.69V63.99V64ZM280 82.5L292.98 90V98H290.98V91.15L280 84.81V82.51V82.5ZM295 49V56.5L307.99 64H308V61.69H307.99L297 55.35V49H295ZM295 98V90L307.99 82.5H308V84.81H307.99L297 91.15V98H295Z" fill="#111827"/>
</g>
<g clip-path="url(#clip62_1_129)">
<path d="M321.99 58.25L334.99 65.75V80.75L321.99 88.25L309 80.75V65.75L321.99 58.25ZM311 66.9V79.6L321.99 85.94L332.99 79.59V66.9L321.99 60.56L311 66.9ZM308 64L320.98 56.5V49H318.98V55.35L308 61.69V63.99V64ZM308 82.5L320.98 90V98H318.98V91.15L308 84.81V82.51V82.5ZM323 49V56.5L335.99 64H336V61.69H335.99L325 55.35V49H323ZM323 98V90L335.99 82.5H336V84.81H335.99L325 91.15V98H323Z" fill="#111827"/>
</g>
<g clip-path="url(#clip63_1_129)">
<path d="M349.99 58.25L362.99 65.75V80.75L349.99 88.25L337 80.75V65.75L349.99 58.25ZM339 66.9V79.6L349.99 85.94L360.99 79.59V66.9L349.99 60.56L339 66.9ZM336 64L348.98 56.5V49H346.98V55.35L336 61.69V63.99V64ZM336 82.5L348.98 90V98H346.98V91.15L336 84.81V82.51V82.5ZM351 49V56.5L363.99 64H364V61.69H363.99L353 55.35V49H351ZM351 98V90L363.99 82.5H364V84.81H363.99L353 91.15V98H351Z" fill="#111827"/>
</g>
<g clip-path="url(#clip64_1_129)">
<path d="M377.99 58.25L390.99 65.75V80.75L377.99 88.25L365 80.75V65.75L377.99 58.25ZM367 66.9V79.6L377.99 85.94L388.99 79.59V66.9L377.99 60.56L367 66.9ZM364 64L376.98 56.5V49H374.98V55.35L364 61.69V63.99V64ZM364 82.5L376.98 90V98H374.98V91.15L364 84.81V82.51V82.5ZM379 49V56.5L391.99 64H392V61.69H391.99L381 55.35V49H379ZM379 98V90L391.99 82.5H392V84.81H391.99L381 91.15V98H379Z" fill="#111827"/>
</g>
<g clip-path="url(#clip65_1_129)">
<path d="M405.99 58.25L418.99 65.75V80.75L405.99 88.25L393 80.75V65.75L405.99 58.25ZM395 66.9V79.6L405.99 85.94L416.99 79.59V66.9L405.99 60.56L395 66.9ZM392 64L404.98 56.5V49H402.98V55.35L392 61.69V63.99V64ZM392 82.5L404.98 90V98H402.98V91.15L392 84.81V82.51V82.5ZM407 49V56.5L419.99 64H420V61.69H419.99L409 55.35V49H407ZM407 98V90L419.99 82.5H420V84.81H419.99L409 91.15V98H407Z" fill="#111827"/>
</g>
<g clip-path="url(#clip66_1_129)">
<path d="M433.99 58.25L446.99 65.75V80.75L433.99 88.25L421 80.75V65.75L433.99 58.25ZM423 66.9V79.6L433.99 85.94L444.99 79.59V66.9L433.99 60.56L423 66.9ZM420 64L432.98 56.5V49H430.98V55.35L420 61.69V63.99V64ZM420 82.5L432.98 90V98H430.98V91.15L420 84.81V82.51V82.5ZM435 49V56.5L447.99 64H448V61.69H447.99L437 55.35V49H435ZM435 98V90L447.99 82.5H448V84.81H447.99L437 91.15V98H435Z" fill="#111827"/>
</g>
<g clip-path="url(#clip67_1_129)">
<path d="M461.99 58.25L474.99 65.75V80.75L461.99 88.25L449 80.75V65.75L461.99 58.25ZM451 66.9V79.6L461.99 85.94L472.99 79.59V66.9L461.99 60.56L451 66.9ZM448 64L460.98 56.5V49H458.98V55.35L448 61.69V63.99V64ZM448 82.5L460.98 90V98H458.98V91.15L448 84.81V82.51V82.5ZM463 49V56.5L475.99 64H476V61.69H475.99L465 55.35V49H463ZM463 98V90L475.99 82.5H476V84.81H475.99L465 91.15V98H463Z" fill="#111827"/>
</g>
<g clip-path="url(#clip68_1_129)">
<path d="M489.99 58.25L502.99 65.75V80.75L489.99 88.25L477 80.75V65.75L489.99 58.25ZM479 66.9V79.6L489.99 85.94L500.99 79.59V66.9L489.99 60.56L479 66.9ZM476 64L488.98 56.5V49H486.98V55.35L476 61.69V63.99V64ZM476 82.5L488.98 90V98H486.98V91.15L476 84.81V82.51V82.5ZM491 49V56.5L503.99 64H504V61.69H503.99L493 55.35V49H491ZM491 98V90L503.99 82.5H504V84.81H503.99L493 91.15V98H491Z" fill="#111827"/>
</g>
<g clip-path="url(#clip69_1_129)">
<path d="M517.99 58.25L530.99 65.75V80.75L517.99 88.25L505 80.75V65.75L517.99 58.25ZM507 66.9V79.6L517.99 85.94L528.99 79.59V66.9L517.99 60.56L507 66.9ZM504 64L516.98 56.5V49H514.98V55.35L504 61.69V63.99V64ZM504 82.5L516.98 90V98H514.98V91.15L504 84.81V82.51V82.5ZM519 49V56.5L531.99 64H532V61.69H531.99L521 55.35V49H519ZM519 98V90L531.99 82.5H532V84.81H531.99L521 91.15V98H519Z" fill="#111827"/>
</g>
<g clip-path="url(#clip70_1_129)">
<path d="M545.99 58.25L558.99 65.75V80.75L545.99 88.25L533 80.75V65.75L545.99 58.25ZM535 66.9V79.6L545.99 85.94L556.99 79.59V66.9L545.99 60.56L535 66.9ZM532 64L544.98 56.5V49H542.98V55.35L532 61.69V63.99V64ZM532 82.5L544.98 90V98H542.98V91.15L532 84.81V82.51V82.5ZM547 49V56.5L559.99 64H560V61.69H559.99L549 55.35V49H547ZM547 98V90L559.99 82.5H560V84.81H559.99L549 91.15V98H547Z" fill="#111827"/>
</g>
<g clip-path="url(#clip71_1_129)">
<path d="M573.99 58.25L586.99 65.75V80.75L573.99 88.25L561 80.75V65.75L573.99 58.25ZM563 66.9V79.6L573.99 85.94L584.99 79.59V66.9L573.99 60.56L563 66.9ZM560 64L572.98 56.5V49H570.98V55.35L560 61.69V63.99V64ZM560 82.5L572.98 90V98H570.98V91.15L560 84.81V82.51V82.5ZM575 49V56.5L587.99 64H588V61.69H587.99L577 55.35V49H575ZM575 98V90L587.99 82.5H588V84.81H587.99L577 91.15V98H575Z" fill="#111827"/>
</g>
<g clip-path="url(#clip72_1_129)">
<path d="M601.99 58.25L614.99 65.75V80.75L601.99 88.25L589 80.75V65.75L601.99 58.25ZM591 66.9V79.6L601.99 85.94L612.99 79.59V66.9L601.99 60.56L591 66.9ZM588 64L600.98 56.5V49H598.98V55.35L588 61.69V63.99V64ZM588 82.5L600.98 90V98H598.98V91.15L588 84.81V82.51V82.5ZM603 49V56.5L615.99 64H616V61.69H615.99L605 55.35V49H603ZM603 98V90L615.99 82.5H616V84.81H615.99L605 91.15V98H603Z" fill="#111827"/>
</g>
<g clip-path="url(#clip73_1_129)">
<path d="M629.99 58.25L642.99 65.75V80.75L629.99 88.25L617 80.75V65.75L629.99 58.25ZM619 66.9V79.6L629.99 85.94L640.99 79.59V66.9L629.99 60.56L619 66.9ZM616 64L628.98 56.5V49H626.98V55.35L616 61.69V63.99V64ZM616 82.5L628.98 90V98H626.98V91.15L616 84.81V82.51V82.5ZM631 49V56.5L643.99 64H644V61.69H643.99L633 55.35V49H631ZM631 98V90L643.99 82.5H644V84.81H643.99L633 91.15V98H631Z" fill="#111827"/>
</g>
<g clip-path="url(#clip74_1_129)">
<path d="M657.99 58.25L670.99 65.75V80.75L657.99 88.25L645 80.75V65.75L657.99 58.25ZM647 66.9V79.6L657.99 85.94L668.99 79.59V66.9L657.99 60.56L647 66.9ZM644 64L656.98 56.5V49H654.98V55.35L644 61.69V63.99V64ZM644 82.5L656.98 90V98H654.98V91.15L644 84.81V82.51V82.5ZM659 49V56.5L671.99 64H672V61.69H671.99L661 55.35V49H659ZM659 98V90L671.99 82.5H672V84.81H671.99L661 91.15V98H659Z" fill="#111827"/>
</g>
<g clip-path="url(#clip75_1_129)">
<path d="M685.99 58.25L698.99 65.75V80.75L685.99 88.25L673 80.75V65.75L685.99 58.25ZM675 66.9V79.6L685.99 85.94L696.99 79.59V66.9L685.99 60.56L675 66.9ZM672 64L684.98 56.5V49H682.98V55.35L672 61.69V63.99V64ZM672 82.5L684.98 90V98H682.98V91.15L672 84.81V82.51V82.5ZM687 49V56.5L699.99 64H700V61.69H699.99L689 55.35V49H687ZM687 98V90L699.99 82.5H700V84.81H699.99L689 91.15V98H687Z" fill="#111827"/>
</g>
<g clip-path="url(#clip76_1_129)">
<path d="M713.99 58.25L726.99 65.75V80.75L713.99 88.25L701 80.75V65.75L713.99 58.25ZM703 66.9V79.6L713.99 85.94L724.99 79.59V66.9L713.99 60.56L703 66.9ZM700 64L712.98 56.5V49H710.98V55.35L700 61.69V63.99V64ZM700 82.5L712.98 90V98H710.98V91.15L700 84.81V82.51V82.5ZM715 49V56.5L727.99 64H728V61.69H727.99L717 55.35V49H715ZM715 98V90L727.99 82.5H728V84.81H727.99L717 91.15V98H715Z" fill="#111827"/>
</g>
<g clip-path="url(#clip77_1_129)">
<path d="M741.99 58.25L754.99 65.75V80.75L741.99 88.25L729 80.75V65.75L741.99 58.25ZM731 66.9V79.6L741.99 85.94L752.99 79.59V66.9L741.99 60.56L731 66.9ZM728 64L740.98 56.5V49H738.98V55.35L728 61.69V63.99V64ZM728 82.5L740.98 90V98H738.98V91.15L728 84.81V82.51V82.5ZM743 49V56.5L755.99 64H756V61.69H755.99L745 55.35V49H743ZM743 98V90L755.99 82.5H756V84.81H755.99L745 91.15V98H743Z" fill="#111827"/>
</g>
<g clip-path="url(#clip78_1_129)">
<path d="M769.99 58.25L782.99 65.75V80.75L769.99 88.25L757 80.75V65.75L769.99 58.25ZM759 66.9V79.6L769.99 85.94L780.99 79.59V66.9L769.99 60.56L759 66.9ZM756 64L768.98 56.5V49H766.98V55.35L756 61.69V63.99V64ZM756 82.5L768.98 90V98H766.98V91.15L756 84.81V82.51V82.5ZM771 49V56.5L783.99 64H784V61.69H783.99L773 55.35V49H771ZM771 98V90L783.99 82.5H784V84.81H783.99L773 91.15V98H771Z" fill="#111827"/>
</g>
<g clip-path="url(#clip79_1_129)">
<path d="M797.99 58.25L810.99 65.75V80.75L797.99 88.25L785 80.75V65.75L797.99 58.25ZM787 66.9V79.6L797.99 85.94L808.99 79.59V66.9L797.99 60.56L787 66.9ZM784 64L796.98 56.5V49H794.98V55.35L784 61.69V63.99V64ZM784 82.5L796.98 90V98H794.98V91.15L784 84.81V82.51V82.5ZM799 49V56.5L811.99 64H812V61.69H811.99L801 55.35V49H799ZM799 98V90L811.99 82.5H812V84.81H811.99L801 91.15V98H799Z" fill="#111827"/>
</g>
<g clip-path="url(#clip80_1_129)">
<path d="M825.99 58.25L838.99 65.75V80.75L825.99 88.25L813 80.75V65.75L825.99 58.25ZM815 66.9V79.6L825.99 85.94L836.99 79.59V66.9L825.99 60.56L815 66.9ZM812 64L824.98 56.5V49H822.98V55.35L812 61.69V63.99V64ZM812 82.5L824.98 90V98H822.98V91.15L812 84.81V82.51V82.5ZM827 49V56.5L839.99 64H840V61.69H839.99L829 55.35V49H827ZM827 98V90L839.99 82.5H840V84.81H839.99L829 91.15V98H827Z" fill="#111827"/>
</g>
<g clip-path="url(#clip81_1_129)">
<path d="M853.99 58.25L866.99 65.75V80.75L853.99 88.25L841 80.75V65.75L853.99 58.25ZM843 66.9V79.6L853.99 85.94L864.99 79.59V66.9L853.99 60.56L843 66.9ZM840 64L852.98 56.5V49H850.98V55.35L840 61.69V63.99V64ZM840 82.5L852.98 90V98H850.98V91.15L840 84.81V82.51V82.5ZM855 49V56.5L867.99 64H868V61.69H867.99L857 55.35V49H855ZM855 98V90L867.99 82.5H868V84.81H867.99L857 91.15V98H855Z" fill="#111827"/>
</g>
<g clip-path="url(#clip82_1_129)">
<path d="M881.99 58.25L894.99 65.75V80.75L881.99 88.25L869 80.75V65.75L881.99 58.25ZM871 66.9V79.6L881.99 85.94L892.99 79.59V66.9L881.99 60.56L871 66.9ZM868 64L880.98 56.5V49H878.98V55.35L868 61.69V63.99V64ZM868 82.5L880.98 90V98H878.98V91.15L868 84.81V82.51V82.5ZM883 49V56.5L895.99 64H896V61.69H895.99L885 55.35V49H883ZM883 98V90L895.99 82.5H896V84.81H895.99L885 91.15V98H883Z" fill="#111827"/>
</g>
<g clip-path="url(#clip83_1_129)">
<path d="M909.99 58.25L922.99 65.75V80.75L909.99 88.25L897 80.75V65.75L909.99 58.25ZM899 66.9V79.6L909.99 85.94L920.99 79.59V66.9L909.99 60.56L899 66.9ZM896 64L908.98 56.5V49H906.98V55.35L896 61.69V63.99V64ZM896 82.5L908.98 90V98H906.98V91.15L896 84.81V82.51V82.5ZM911 49V56.5L923.99 64H924V61.69H923.99L913 55.35V49H911ZM911 98V90L923.99 82.5H924V84.81H923.99L913 91.15V98H911Z" fill="#111827"/>
</g>
<g clip-path="url(#clip84_1_129)">
<path d="M937.99 58.25L950.99 65.75V80.75L937.99 88.25L925 80.75V65.75L937.99 58.25ZM927 66.9V79.6L937.99 85.94L948.99 79.59V66.9L937.99 60.56L927 66.9ZM924 64L936.98 56.5V49H934.98V55.35L924 61.69V63.99V64ZM924 82.5L936.98 90V98H934.98V91.15L924 84.81V82.51V82.5ZM939 49V56.5L951.99 64H952V61.69H951.99L941 55.35V49H939ZM939 98V90L951.99 82.5H952V84.81H951.99L941 91.15V98H939Z" fill="#111827"/>
</g>
<g clip-path="url(#clip85_1_129)">
<path d="M965.99 58.25L978.99 65.75V80.75L965.99 88.25L953 80.75V65.75L965.99 58.25ZM955 66.9V79.6L965.99 85.94L976.99 79.59V66.9L965.99 60.56L955 66.9ZM952 64L964.98 56.5V49H962.98V55.35L952 61.69V63.99V64ZM952 82.5L964.98 90V98H962.98V91.15L952 84.81V82.51V82.5ZM967 49V56.5L979.99 64H980V61.69H979.99L969 55.35V49H967ZM967 98V90L979.99 82.5H980V84.81H979.99L969 91.15V98H967Z" fill="#111827"/>
</g>
<g clip-path="url(#clip86_1_129)">
<path d="M993.99 58.25L1006.99 65.75V80.75L993.99 88.25L981 80.75V65.75L993.99 58.25ZM983 66.9V79.6L993.99 85.94L1004.99 79.59V66.9L993.99 60.56L983 66.9ZM980 64L992.98 56.5V49H990.98V55.35L980 61.69V63.99V64ZM980 82.5L992.98 90V98H990.98V91.15L980 84.81V82.51V82.5ZM995 49V56.5L1007.99 64H1008V61.69H1007.99L997 55.35V49H995ZM995 98V90L1007.99 82.5H1008V84.81H1007.99L997 91.15V98H995Z" fill="#111827"/>
</g>
<g clip-path="url(#clip87_1_129)">
<path d="M1021.99 58.25L1034.99 65.75V80.75L1021.99 88.25L1009 80.75V65.75L1021.99 58.25ZM1011 66.9V79.6L1021.99 85.94L1032.99 79.59V66.9L1021.99 60.56L1011 66.9ZM1008 64L1020.98 56.5V49H1018.98V55.35L1008 61.69V63.99V64ZM1008 82.5L1020.98 90V98H1018.98V91.15L1008 84.81V82.51V82.5ZM1023 49V56.5L1035.99 64H1036V61.69H1035.99L1025 55.35V49H1023ZM1023 98V90L1035.99 82.5H1036V84.81H1035.99L1025 91.15V98H1023Z" fill="#111827"/>
</g>
<g clip-path="url(#clip88_1_129)">
<path d="M1049.99 58.25L1062.99 65.75V80.75L1049.99 88.25L1037 80.75V65.75L1049.99 58.25ZM1039 66.9V79.6L1049.99 85.94L1060.99 79.59V66.9L1049.99 60.56L1039 66.9ZM1036 64L1048.98 56.5V49H1046.98V55.35L1036 61.69V63.99V64ZM1036 82.5L1048.98 90V98H1046.98V91.15L1036 84.81V82.51V82.5ZM1051 49V56.5L1063.99 64H1064V61.69H1063.99L1053 55.35V49H1051ZM1051 98V90L1063.99 82.5H1064V84.81H1063.99L1053 91.15V98H1051Z" fill="#111827"/>
</g>
<g clip-path="url(#clip89_1_129)">
<path d="M1077.99 58.25L1090.99 65.75V80.75L1077.99 88.25L1065 80.75V65.75L1077.99 58.25ZM1067 66.9V79.6L1077.99 85.94L1088.99 79.59V66.9L1077.99 60.56L1067 66.9ZM1064 64L1076.98 56.5V49H1074.98V55.35L1064 61.69V63.99V64ZM1064 82.5L1076.98 90V98H1074.98V91.15L1064 84.81V82.51V82.5ZM1079 49V56.5L1091.99 64H1092V61.69H1091.99L1081 55.35V49H1079ZM1079 98V90L1091.99 82.5H1092V84.81H1091.99L1081 91.15V98H1079Z" fill="#111827"/>
</g>
<g clip-path="url(#clip90_1_129)">
<path d="M1105.99 58.25L1118.99 65.75V80.75L1105.99 88.25L1093 80.75V65.75L1105.99 58.25ZM1095 66.9V79.6L1105.99 85.94L1116.99 79.59V66.9L1105.99 60.56L1095 66.9ZM1092 64L1104.98 56.5V49H1102.98V55.35L1092 61.69V63.99V64ZM1092 82.5L1104.98 90V98H1102.98V91.15L1092 84.81V82.51V82.5ZM1107 49V56.5L1119.99 64H1120V61.69H1119.99L1109 55.35V49H1107ZM1107 98V90L1119.99 82.5H1120V84.81H1119.99L1109 91.15V98H1107Z" fill="#111827"/>
</g>
<g clip-path="url(#clip91_1_129)">
<path d="M1133.99 58.25L1146.99 65.75V80.75L1133.99 88.25L1121 80.75V65.75L1133.99 58.25ZM1123 66.9V79.6L1133.99 85.94L1144.99 79.59V66.9L1133.99 60.56L1123 66.9ZM1120 64L1132.98 56.5V49H1130.98V55.35L1120 61.69V63.99V64ZM1120 82.5L1132.98 90V98H1130.98V91.15L1120 84.81V82.51V82.5ZM1135 49V56.5L1147.99 64H1148V61.69H1147.99L1137 55.35V49H1135ZM1135 98V90L1147.99 82.5H1148V84.81H1147.99L1137 91.15V98H1135Z" fill="#111827"/>
</g>
<g clip-path="url(#clip92_1_129)">
<path d="M1161.99 58.25L1174.99 65.75V80.75L1161.99 88.25L1149 80.75V65.75L1161.99 58.25ZM1151 66.9V79.6L1161.99 85.94L1172.99 79.59V66.9L1161.99 60.56L1151 66.9ZM1148 64L1160.98 56.5V49H1158.98V55.35L1148 61.69V63.99V64ZM1148 82.5L1160.98 90V98H1158.98V91.15L1148 84.81V82.51V82.5ZM1163 49V56.5L1175.99 64H1176V61.69H1175.99L1165 55.35V49H1163ZM1163 98V90L1175.99 82.5H1176V84.81H1175.99L1165 91.15V98H1163Z" fill="#111827"/>
</g>
<g clip-path="url(#clip93_1_129)">
<path d="M1189.99 58.25L1202.99 65.75V80.75L1189.99 88.25L1177 80.75V65.75L1189.99 58.25ZM1179 66.9V79.6L1189.99 85.94L1200.99 79.59V66.9L1189.99 60.56L1179 66.9ZM1176 64L1188.98 56.5V49H1186.98V55.35L1176 61.69V63.99V64ZM1176 82.5L1188.98 90V98H1186.98V91.15L1176 84.81V82.51V82.5ZM1191 49V56.5L1203.99 64H1204V61.69H1203.99L1193 55.35V49H1191ZM1191 98V90L1203.99 82.5H1204V84.81H1203.99L1193 91.15V98H1191Z" fill="#111827"/>
</g>
<g clip-path="url(#clip94_1_129)">
<path d="M1217.99 58.25L1230.99 65.75V80.75L1217.99 88.25L1205 80.75V65.75L1217.99 58.25ZM1207 66.9V79.6L1217.99 85.94L1228.99 79.59V66.9L1217.99 60.56L1207 66.9ZM1204 64L1216.98 56.5V49H1214.98V55.35L1204 61.69V63.99V64ZM1204 82.5L1216.98 90V98H1214.98V91.15L1204 84.81V82.51V82.5ZM1219 49V56.5L1231.99 64H1232V61.69H1231.99L1221 55.35V49H1219ZM1219 98V90L1231.99 82.5H1232V84.81H1231.99L1221 91.15V98H1219Z" fill="#111827"/>
</g>
<g clip-path="url(#clip95_1_129)">
<path d="M1245.99 58.25L1258.99 65.75V80.75L1245.99 88.25L1233 80.75V65.75L1245.99 58.25ZM1235 66.9V79.6L1245.99 85.94L1256.99 79.59V66.9L1245.99 60.56L1235 66.9ZM1232 64L1244.98 56.5V49H1242.98V55.35L1232 61.69V63.99V64ZM1232 82.5L1244.98 90V98H1242.98V91.15L1232 84.81V82.51V82.5ZM1247 49V56.5L1259.99 64H1260V61.69H1259.99L1249 55.35V49H1247ZM1247 98V90L1259.99 82.5H1260V84.81H1259.99L1249 91.15V98H1247Z" fill="#111827"/>
</g>
<g clip-path="url(#clip96_1_129)">
<path d="M1273.99 58.25L1286.99 65.75V80.75L1273.99 88.25L1261 80.75V65.75L1273.99 58.25ZM1263 66.9V79.6L1273.99 85.94L1284.99 79.59V66.9L1273.99 60.56L1263 66.9ZM1260 64L1272.98 56.5V49H1270.98V55.35L1260 61.69V63.99V64ZM1260 82.5L1272.98 90V98H1270.98V91.15L1260 84.81V82.51V82.5ZM1275 49V56.5L1287.99 64H1288V61.69H1287.99L1277 55.35V49H1275ZM1275 98V90L1287.99 82.5H1288V84.81H1287.99L1277 91.15V98H1275Z" fill="#111827"/>
</g>
<g clip-path="url(#clip97_1_129)">
<path d="M1301.99 58.25L1314.99 65.75V80.75L1301.99 88.25L1289 80.75V65.75L1301.99 58.25ZM1291 66.9V79.6L1301.99 85.94L1312.99 79.59V66.9L1301.99 60.56L1291 66.9ZM1288 64L1300.98 56.5V49H1298.98V55.35L1288 61.69V63.99V64ZM1288 82.5L1300.98 90V98H1298.98V91.15L1288 84.81V82.51V82.5ZM1303 49V56.5L1315.99 64H1316V61.69H1315.99L1305 55.35V49H1303ZM1303 98V90L1315.99 82.5H1316V84.81H1315.99L1305 91.15V98H1303Z" fill="#111827"/>
</g>
<g clip-path="url(#clip98_1_129)">
<path d="M1329.99 58.25L1342.99 65.75V80.75L1329.99 88.25L1317 80.75V65.75L1329.99 58.25ZM1319 66.9V79.6L1329.99 85.94L1340.99 79.59V66.9L1329.99 60.56L1319 66.9ZM1316 64L1328.98 56.5V49H1326.98V55.35L1316 61.69V63.99V64ZM1316 82.5L1328.98 90V98H1326.98V91.15L1316 84.81V82.51V82.5ZM1331 49V56.5L1343.99 64H1344V61.69H1343.99L1333 55.35V49H1331ZM1331 98V90L1343.99 82.5H1344V84.81H1343.99L1333 91.15V98H1331Z" fill="#111827"/>
</g>
<g clip-path="url(#clip99_1_129)">
<path d="M1357.99 58.25L1370.99 65.75V80.75L1357.99 88.25L1345 80.75V65.75L1357.99 58.25ZM1347 66.9V79.6L1357.99 85.94L1368.99 79.59V66.9L1357.99 60.56L1347 66.9ZM1344 64L1356.98 56.5V49H1354.98V55.35L1344 61.69V63.99V64ZM1344 82.5L1356.98 90V98H1354.98V91.15L1344 84.81V82.51V82.5ZM1359 49V56.5L1371.99 64H1372V61.69H1371.99L1361 55.35V49H1359ZM1359 98V90L1371.99 82.5H1372V84.81H1371.99L1361 91.15V98H1359Z" fill="#111827"/>
</g>
<g clip-path="url(#clip100_1_129)">
<path d="M1385.99 58.25L1398.99 65.75V80.75L1385.99 88.25L1373 80.75V65.75L1385.99 58.25ZM1375 66.9V79.6L1385.99 85.94L1396.99 79.59V66.9L1385.99 60.56L1375 66.9ZM1372 64L1384.98 56.5V49H1382.98V55.35L1372 61.69V63.99V64ZM1372 82.5L1384.98 90V98H1382.98V91.15L1372 84.81V82.51V82.5ZM1387 49V56.5L1399.99 64H1400V61.69H1399.99L1389 55.35V49H1387ZM1387 98V90L1399.99 82.5H1400V84.81H1399.99L1389 91.15V98H1387Z" fill="#111827"/>
</g>
<g clip-path="url(#clip101_1_129)">
<path d="M1413.99 58.25L1426.99 65.75V80.75L1413.99 88.25L1401 80.75V65.75L1413.99 58.25ZM1403 66.9V79.6L1413.99 85.94L1424.99 79.59V66.9L1413.99 60.56L1403 66.9ZM1400 64L1412.98 56.5V49H1410.98V55.35L1400 61.69V63.99V64ZM1400 82.5L1412.98 90V98H1410.98V91.15L1400 84.81V82.51V82.5ZM1415 49V56.5L1427.99 64H1428V61.69H1427.99L1417 55.35V49H1415ZM1415 98V90L1427.99 82.5H1428V84.81H1427.99L1417 91.15V98H1415Z" fill="#111827"/>
</g>
<g clip-path="url(#clip102_1_129)">
<path d="M13.99 107.25L26.99 114.75V129.75L13.99 137.25L1 129.75V114.75L13.99 107.25ZM3 115.9V128.6L13.99 134.94L24.99 128.59V115.9L13.99 109.56L3 115.9ZM0 113L12.98 105.5V98H10.98V104.35L0 110.69V112.99V113ZM0 131.5L12.98 139V147H10.98V140.15L0 133.81V131.51V131.5ZM15 98V105.5L27.99 113H28V110.69H27.99L17 104.35V98H15ZM15 147V139L27.99 131.5H28V133.81H27.99L17 140.15V147H15Z" fill="#111827"/>
</g>
<g clip-path="url(#clip103_1_129)">
<path d="M41.99 107.25L54.99 114.75V129.75L41.99 137.25L29 129.75V114.75L41.99 107.25ZM31 115.9V128.6L41.99 134.94L52.99 128.59V115.9L41.99 109.56L31 115.9ZM28 113L40.98 105.5V98H38.98V104.35L28 110.69V112.99V113ZM28 131.5L40.98 139V147H38.98V140.15L28 133.81V131.51V131.5ZM43 98V105.5L55.99 113H56V110.69H55.99L45 104.35V98H43ZM43 147V139L55.99 131.5H56V133.81H55.99L45 140.15V147H43Z" fill="#111827"/>
</g>
<g clip-path="url(#clip104_1_129)">
<path d="M69.99 107.25L82.99 114.75V129.75L69.99 137.25L57 129.75V114.75L69.99 107.25ZM59 115.9V128.6L69.99 134.94L80.99 128.59V115.9L69.99 109.56L59 115.9ZM56 113L68.98 105.5V98H66.98V104.35L56 110.69V112.99V113ZM56 131.5L68.98 139V147H66.98V140.15L56 133.81V131.51V131.5ZM71 98V105.5L83.99 113H84V110.69H83.99L73 104.35V98H71ZM71 147V139L83.99 131.5H84V133.81H83.99L73 140.15V147H71Z" fill="#111827"/>
</g>
<g clip-path="url(#clip105_1_129)">
<path d="M97.99 107.25L110.99 114.75V129.75L97.99 137.25L85 129.75V114.75L97.99 107.25ZM87 115.9V128.6L97.99 134.94L108.99 128.59V115.9L97.99 109.56L87 115.9ZM84 113L96.98 105.5V98H94.98V104.35L84 110.69V112.99V113ZM84 131.5L96.98 139V147H94.98V140.15L84 133.81V131.51V131.5ZM99 98V105.5L111.99 113H112V110.69H111.99L101 104.35V98H99ZM99 147V139L111.99 131.5H112V133.81H111.99L101 140.15V147H99Z" fill="#111827"/>
</g>
<g clip-path="url(#clip106_1_129)">
<path d="M125.99 107.25L138.99 114.75V129.75L125.99 137.25L113 129.75V114.75L125.99 107.25ZM115 115.9V128.6L125.99 134.94L136.99 128.59V115.9L125.99 109.56L115 115.9ZM112 113L124.98 105.5V98H122.98V104.35L112 110.69V112.99V113ZM112 131.5L124.98 139V147H122.98V140.15L112 133.81V131.51V131.5ZM127 98V105.5L139.99 113H140V110.69H139.99L129 104.35V98H127ZM127 147V139L139.99 131.5H140V133.81H139.99L129 140.15V147H127Z" fill="#111827"/>
</g>
<g clip-path="url(#clip107_1_129)">
<path d="M153.99 107.25L166.99 114.75V129.75L153.99 137.25L141 129.75V114.75L153.99 107.25ZM143 115.9V128.6L153.99 134.94L164.99 128.59V115.9L153.99 109.56L143 115.9ZM140 113L152.98 105.5V98H150.98V104.35L140 110.69V112.99V113ZM140 131.5L152.98 139V147H150.98V140.15L140 133.81V131.51V131.5ZM155 98V105.5L167.99 113H168V110.69H167.99L157 104.35V98H155ZM155 147V139L167.99 131.5H168V133.81H167.99L157 140.15V147H155Z" fill="#111827"/>
</g>
<g clip-path="url(#clip108_1_129)">
<path d="M181.99 107.25L194.99 114.75V129.75L181.99 137.25L169 129.75V114.75L181.99 107.25ZM171 115.9V128.6L181.99 134.94L192.99 128.59V115.9L181.99 109.56L171 115.9ZM168 113L180.98 105.5V98H178.98V104.35L168 110.69V112.99V113ZM168 131.5L180.98 139V147H178.98V140.15L168 133.81V131.51V131.5ZM183 98V105.5L195.99 113H196V110.69H195.99L185 104.35V98H183ZM183 147V139L195.99 131.5H196V133.81H195.99L185 140.15V147H183Z" fill="#111827"/>
</g>
<g clip-path="url(#clip109_1_129)">
<path d="M209.99 107.25L222.99 114.75V129.75L209.99 137.25L197 129.75V114.75L209.99 107.25ZM199 115.9V128.6L209.99 134.94L220.99 128.59V115.9L209.99 109.56L199 115.9ZM196 113L208.98 105.5V98H206.98V104.35L196 110.69V112.99V113ZM196 131.5L208.98 139V147H206.98V140.15L196 133.81V131.51V131.5ZM211 98V105.5L223.99 113H224V110.69H223.99L213 104.35V98H211ZM211 147V139L223.99 131.5H224V133.81H223.99L213 140.15V147H211Z" fill="#111827"/>
</g>
<g clip-path="url(#clip110_1_129)">
<path d="M237.99 107.25L250.99 114.75V129.75L237.99 137.25L225 129.75V114.75L237.99 107.25ZM227 115.9V128.6L237.99 134.94L248.99 128.59V115.9L237.99 109.56L227 115.9ZM224 113L236.98 105.5V98H234.98V104.35L224 110.69V112.99V113ZM224 131.5L236.98 139V147H234.98V140.15L224 133.81V131.51V131.5ZM239 98V105.5L251.99 113H252V110.69H251.99L241 104.35V98H239ZM239 147V139L251.99 131.5H252V133.81H251.99L241 140.15V147H239Z" fill="#111827"/>
</g>
<g clip-path="url(#clip111_1_129)">
<path d="M265.99 107.25L278.99 114.75V129.75L265.99 137.25L253 129.75V114.75L265.99 107.25ZM255 115.9V128.6L265.99 134.94L276.99 128.59V115.9L265.99 109.56L255 115.9ZM252 113L264.98 105.5V98H262.98V104.35L252 110.69V112.99V113ZM252 131.5L264.98 139V147H262.98V140.15L252 133.81V131.51V131.5ZM267 98V105.5L279.99 113H280V110.69H279.99L269 104.35V98H267ZM267 147V139L279.99 131.5H280V133.81H279.99L269 140.15V147H267Z" fill="#111827"/>
</g>
<g clip-path="url(#clip112_1_129)">
<path d="M293.99 107.25L306.99 114.75V129.75L293.99 137.25L281 129.75V114.75L293.99 107.25ZM283 115.9V128.6L293.99 134.94L304.99 128.59V115.9L293.99 109.56L283 115.9ZM280 113L292.98 105.5V98H290.98V104.35L280 110.69V112.99V113ZM280 131.5L292.98 139V147H290.98V140.15L280 133.81V131.51V131.5ZM295 98V105.5L307.99 113H308V110.69H307.99L297 104.35V98H295ZM295 147V139L307.99 131.5H308V133.81H307.99L297 140.15V147H295Z" fill="#111827"/>
</g>
<g clip-path="url(#clip113_1_129)">
<path d="M321.99 107.25L334.99 114.75V129.75L321.99 137.25L309 129.75V114.75L321.99 107.25ZM311 115.9V128.6L321.99 134.94L332.99 128.59V115.9L321.99 109.56L311 115.9ZM308 113L320.98 105.5V98H318.98V104.35L308 110.69V112.99V113ZM308 131.5L320.98 139V147H318.98V140.15L308 133.81V131.51V131.5ZM323 98V105.5L335.99 113H336V110.69H335.99L325 104.35V98H323ZM323 147V139L335.99 131.5H336V133.81H335.99L325 140.15V147H323Z" fill="#111827"/>
</g>
<g clip-path="url(#clip114_1_129)">
<path d="M349.99 107.25L362.99 114.75V129.75L349.99 137.25L337 129.75V114.75L349.99 107.25ZM339 115.9V128.6L349.99 134.94L360.99 128.59V115.9L349.99 109.56L339 115.9ZM336 113L348.98 105.5V98H346.98V104.35L336 110.69V112.99V113ZM336 131.5L348.98 139V147H346.98V140.15L336 133.81V131.51V131.5ZM351 98V105.5L363.99 113H364V110.69H363.99L353 104.35V98H351ZM351 147V139L363.99 131.5H364V133.81H363.99L353 140.15V147H351Z" fill="#111827"/>
</g>
<g clip-path="url(#clip115_1_129)">
<path d="M377.99 107.25L390.99 114.75V129.75L377.99 137.25L365 129.75V114.75L377.99 107.25ZM367 115.9V128.6L377.99 134.94L388.99 128.59V115.9L377.99 109.56L367 115.9ZM364 113L376.98 105.5V98H374.98V104.35L364 110.69V112.99V113ZM364 131.5L376.98 139V147H374.98V140.15L364 133.81V131.51V131.5ZM379 98V105.5L391.99 113H392V110.69H391.99L381 104.35V98H379ZM379 147V139L391.99 131.5H392V133.81H391.99L381 140.15V147H379Z" fill="#111827"/>
</g>
<g clip-path="url(#clip116_1_129)">
<path d="M405.99 107.25L418.99 114.75V129.75L405.99 137.25L393 129.75V114.75L405.99 107.25ZM395 115.9V128.6L405.99 134.94L416.99 128.59V115.9L405.99 109.56L395 115.9ZM392 113L404.98 105.5V98H402.98V104.35L392 110.69V112.99V113ZM392 131.5L404.98 139V147H402.98V140.15L392 133.81V131.51V131.5ZM407 98V105.5L419.99 113H420V110.69H419.99L409 104.35V98H407ZM407 147V139L419.99 131.5H420V133.81H419.99L409 140.15V147H407Z" fill="#111827"/>
</g>
<g clip-path="url(#clip117_1_129)">
<path d="M433.99 107.25L446.99 114.75V129.75L433.99 137.25L421 129.75V114.75L433.99 107.25ZM423 115.9V128.6L433.99 134.94L444.99 128.59V115.9L433.99 109.56L423 115.9ZM420 113L432.98 105.5V98H430.98V104.35L420 110.69V112.99V113ZM420 131.5L432.98 139V147H430.98V140.15L420 133.81V131.51V131.5ZM435 98V105.5L447.99 113H448V110.69H447.99L437 104.35V98H435ZM435 147V139L447.99 131.5H448V133.81H447.99L437 140.15V147H435Z" fill="#111827"/>
</g>
<g clip-path="url(#clip118_1_129)">
<path d="M461.99 107.25L474.99 114.75V129.75L461.99 137.25L449 129.75V114.75L461.99 107.25ZM451 115.9V128.6L461.99 134.94L472.99 128.59V115.9L461.99 109.56L451 115.9ZM448 113L460.98 105.5V98H458.98V104.35L448 110.69V112.99V113ZM448 131.5L460.98 139V147H458.98V140.15L448 133.81V131.51V131.5ZM463 98V105.5L475.99 113H476V110.69H475.99L465 104.35V98H463ZM463 147V139L475.99 131.5H476V133.81H475.99L465 140.15V147H463Z" fill="#111827"/>
</g>
<g clip-path="url(#clip119_1_129)">
<path d="M489.99 107.25L502.99 114.75V129.75L489.99 137.25L477 129.75V114.75L489.99 107.25ZM479 115.9V128.6L489.99 134.94L500.99 128.59V115.9L489.99 109.56L479 115.9ZM476 113L488.98 105.5V98H486.98V104.35L476 110.69V112.99V113ZM476 131.5L488.98 139V147H486.98V140.15L476 133.81V131.51V131.5ZM491 98V105.5L503.99 113H504V110.69H503.99L493 104.35V98H491ZM491 147V139L503.99 131.5H504V133.81H503.99L493 140.15V147H491Z" fill="#111827"/>
</g>
<g clip-path="url(#clip120_1_129)">
<path d="M517.99 107.25L530.99 114.75V129.75L517.99 137.25L505 129.75V114.75L517.99 107.25ZM507 115.9V128.6L517.99 134.94L528.99 128.59V115.9L517.99 109.56L507 115.9ZM504 113L516.98 105.5V98H514.98V104.35L504 110.69V112.99V113ZM504 131.5L516.98 139V147H514.98V140.15L504 133.81V131.51V131.5ZM519 98V105.5L531.99 113H532V110.69H531.99L521 104.35V98H519ZM519 147V139L531.99 131.5H532V133.81H531.99L521 140.15V147H519Z" fill="#111827"/>
</g>
<g clip-path="url(#clip121_1_129)">
<path d="M545.99 107.25L558.99 114.75V129.75L545.99 137.25L533 129.75V114.75L545.99 107.25ZM535 115.9V128.6L545.99 134.94L556.99 128.59V115.9L545.99 109.56L535 115.9ZM532 113L544.98 105.5V98H542.98V104.35L532 110.69V112.99V113ZM532 131.5L544.98 139V147H542.98V140.15L532 133.81V131.51V131.5ZM547 98V105.5L559.99 113H560V110.69H559.99L549 104.35V98H547ZM547 147V139L559.99 131.5H560V133.81H559.99L549 140.15V147H547Z" fill="#111827"/>
</g>
<g clip-path="url(#clip122_1_129)">
<path d="M573.99 107.25L586.99 114.75V129.75L573.99 137.25L561 129.75V114.75L573.99 107.25ZM563 115.9V128.6L573.99 134.94L584.99 128.59V115.9L573.99 109.56L563 115.9ZM560 113L572.98 105.5V98H570.98V104.35L560 110.69V112.99V113ZM560 131.5L572.98 139V147H570.98V140.15L560 133.81V131.51V131.5ZM575 98V105.5L587.99 113H588V110.69H587.99L577 104.35V98H575ZM575 147V139L587.99 131.5H588V133.81H587.99L577 140.15V147H575Z" fill="#111827"/>
</g>
<g clip-path="url(#clip123_1_129)">
<path d="M601.99 107.25L614.99 114.75V129.75L601.99 137.25L589 129.75V114.75L601.99 107.25ZM591 115.9V128.6L601.99 134.94L612.99 128.59V115.9L601.99 109.56L591 115.9ZM588 113L600.98 105.5V98H598.98V104.35L588 110.69V112.99V113ZM588 131.5L600.98 139V147H598.98V140.15L588 133.81V131.51V131.5ZM603 98V105.5L615.99 113H616V110.69H615.99L605 104.35V98H603ZM603 147V139L615.99 131.5H616V133.81H615.99L605 140.15V147H603Z" fill="#111827"/>
</g>
<g clip-path="url(#clip124_1_129)">
<path d="M629.99 107.25L642.99 114.75V129.75L629.99 137.25L617 129.75V114.75L629.99 107.25ZM619 115.9V128.6L629.99 134.94L640.99 128.59V115.9L629.99 109.56L619 115.9ZM616 113L628.98 105.5V98H626.98V104.35L616 110.69V112.99V113ZM616 131.5L628.98 139V147H626.98V140.15L616 133.81V131.51V131.5ZM631 98V105.5L643.99 113H644V110.69H643.99L633 104.35V98H631ZM631 147V139L643.99 131.5H644V133.81H643.99L633 140.15V147H631Z" fill="#111827"/>
</g>
<g clip-path="url(#clip125_1_129)">
<path d="M657.99 107.25L670.99 114.75V129.75L657.99 137.25L645 129.75V114.75L657.99 107.25ZM647 115.9V128.6L657.99 134.94L668.99 128.59V115.9L657.99 109.56L647 115.9ZM644 113L656.98 105.5V98H654.98V104.35L644 110.69V112.99V113ZM644 131.5L656.98 139V147H654.98V140.15L644 133.81V131.51V131.5ZM659 98V105.5L671.99 113H672V110.69H671.99L661 104.35V98H659ZM659 147V139L671.99 131.5H672V133.81H671.99L661 140.15V147H659Z" fill="#111827"/>
</g>
<g clip-path="url(#clip126_1_129)">
<path d="M685.99 107.25L698.99 114.75V129.75L685.99 137.25L673 129.75V114.75L685.99 107.25ZM675 115.9V128.6L685.99 134.94L696.99 128.59V115.9L685.99 109.56L675 115.9ZM672 113L684.98 105.5V98H682.98V104.35L672 110.69V112.99V113ZM672 131.5L684.98 139V147H682.98V140.15L672 133.81V131.51V131.5ZM687 98V105.5L699.99 113H700V110.69H699.99L689 104.35V98H687ZM687 147V139L699.99 131.5H700V133.81H699.99L689 140.15V147H687Z" fill="#111827"/>
</g>
<g clip-path="url(#clip127_1_129)">
<path d="M713.99 107.25L726.99 114.75V129.75L713.99 137.25L701 129.75V114.75L713.99 107.25ZM703 115.9V128.6L713.99 134.94L724.99 128.59V115.9L713.99 109.56L703 115.9ZM700 113L712.98 105.5V98H710.98V104.35L700 110.69V112.99V113ZM700 131.5L712.98 139V147H710.98V140.15L700 133.81V131.51V131.5ZM715 98V105.5L727.99 113H728V110.69H727.99L717 104.35V98H715ZM715 147V139L727.99 131.5H728V133.81H727.99L717 140.15V147H715Z" fill="#111827"/>
</g>
<g clip-path="url(#clip128_1_129)">
<path d="M741.99 107.25L754.99 114.75V129.75L741.99 137.25L729 129.75V114.75L741.99 107.25ZM731 115.9V128.6L741.99 134.94L752.99 128.59V115.9L741.99 109.56L731 115.9ZM728 113L740.98 105.5V98H738.98V104.35L728 110.69V112.99V113ZM728 131.5L740.98 139V147H738.98V140.15L728 133.81V131.51V131.5ZM743 98V105.5L755.99 113H756V110.69H755.99L745 104.35V98H743ZM743 147V139L755.99 131.5H756V133.81H755.99L745 140.15V147H743Z" fill="#111827"/>
</g>
<g clip-path="url(#clip129_1_129)">
<path d="M769.99 107.25L782.99 114.75V129.75L769.99 137.25L757 129.75V114.75L769.99 107.25ZM759 115.9V128.6L769.99 134.94L780.99 128.59V115.9L769.99 109.56L759 115.9ZM756 113L768.98 105.5V98H766.98V104.35L756 110.69V112.99V113ZM756 131.5L768.98 139V147H766.98V140.15L756 133.81V131.51V131.5ZM771 98V105.5L783.99 113H784V110.69H783.99L773 104.35V98H771ZM771 147V139L783.99 131.5H784V133.81H783.99L773 140.15V147H771Z" fill="#111827"/>
</g>
<g clip-path="url(#clip130_1_129)">
<path d="M797.99 107.25L810.99 114.75V129.75L797.99 137.25L785 129.75V114.75L797.99 107.25ZM787 115.9V128.6L797.99 134.94L808.99 128.59V115.9L797.99 109.56L787 115.9ZM784 113L796.98 105.5V98H794.98V104.35L784 110.69V112.99V113ZM784 131.5L796.98 139V147H794.98V140.15L784 133.81V131.51V131.5ZM799 98V105.5L811.99 113H812V110.69H811.99L801 104.35V98H799ZM799 147V139L811.99 131.5H812V133.81H811.99L801 140.15V147H799Z" fill="#111827"/>
</g>
<g clip-path="url(#clip131_1_129)">
<path d="M825.99 107.25L838.99 114.75V129.75L825.99 137.25L813 129.75V114.75L825.99 107.25ZM815 115.9V128.6L825.99 134.94L836.99 128.59V115.9L825.99 109.56L815 115.9ZM812 113L824.98 105.5V98H822.98V104.35L812 110.69V112.99V113ZM812 131.5L824.98 139V147H822.98V140.15L812 133.81V131.51V131.5ZM827 98V105.5L839.99 113H840V110.69H839.99L829 104.35V98H827ZM827 147V139L839.99 131.5H840V133.81H839.99L829 140.15V147H827Z" fill="#111827"/>
</g>
<g clip-path="url(#clip132_1_129)">
<path d="M853.99 107.25L866.99 114.75V129.75L853.99 137.25L841 129.75V114.75L853.99 107.25ZM843 115.9V128.6L853.99 134.94L864.99 128.59V115.9L853.99 109.56L843 115.9ZM840 113L852.98 105.5V98H850.98V104.35L840 110.69V112.99V113ZM840 131.5L852.98 139V147H850.98V140.15L840 133.81V131.51V131.5ZM855 98V105.5L867.99 113H868V110.69H867.99L857 104.35V98H855ZM855 147V139L867.99 131.5H868V133.81H867.99L857 140.15V147H855Z" fill="#111827"/>
</g>
<g clip-path="url(#clip133_1_129)">
<path d="M881.99 107.25L894.99 114.75V129.75L881.99 137.25L869 129.75V114.75L881.99 107.25ZM871 115.9V128.6L881.99 134.94L892.99 128.59V115.9L881.99 109.56L871 115.9ZM868 113L880.98 105.5V98H878.98V104.35L868 110.69V112.99V113ZM868 131.5L880.98 139V147H878.98V140.15L868 133.81V131.51V131.5ZM883 98V105.5L895.99 113H896V110.69H895.99L885 104.35V98H883ZM883 147V139L895.99 131.5H896V133.81H895.99L885 140.15V147H883Z" fill="#111827"/>
</g>
<g clip-path="url(#clip134_1_129)">
<path d="M909.99 107.25L922.99 114.75V129.75L909.99 137.25L897 129.75V114.75L909.99 107.25ZM899 115.9V128.6L909.99 134.94L920.99 128.59V115.9L909.99 109.56L899 115.9ZM896 113L908.98 105.5V98H906.98V104.35L896 110.69V112.99V113ZM896 131.5L908.98 139V147H906.98V140.15L896 133.81V131.51V131.5ZM911 98V105.5L923.99 113H924V110.69H923.99L913 104.35V98H911ZM911 147V139L923.99 131.5H924V133.81H923.99L913 140.15V147H911Z" fill="#111827"/>
</g>
<g clip-path="url(#clip135_1_129)">
<path d="M937.99 107.25L950.99 114.75V129.75L937.99 137.25L925 129.75V114.75L937.99 107.25ZM927 115.9V128.6L937.99 134.94L948.99 128.59V115.9L937.99 109.56L927 115.9ZM924 113L936.98 105.5V98H934.98V104.35L924 110.69V112.99V113ZM924 131.5L936.98 139V147H934.98V140.15L924 133.81V131.51V131.5ZM939 98V105.5L951.99 113H952V110.69H951.99L941 104.35V98H939ZM939 147V139L951.99 131.5H952V133.81H951.99L941 140.15V147H939Z" fill="#111827"/>
</g>
<g clip-path="url(#clip136_1_129)">
<path d="M965.99 107.25L978.99 114.75V129.75L965.99 137.25L953 129.75V114.75L965.99 107.25ZM955 115.9V128.6L965.99 134.94L976.99 128.59V115.9L965.99 109.56L955 115.9ZM952 113L964.98 105.5V98H962.98V104.35L952 110.69V112.99V113ZM952 131.5L964.98 139V147H962.98V140.15L952 133.81V131.51V131.5ZM967 98V105.5L979.99 113H980V110.69H979.99L969 104.35V98H967ZM967 147V139L979.99 131.5H980V133.81H979.99L969 140.15V147H967Z" fill="#111827"/>
</g>
<g clip-path="url(#clip137_1_129)">
<path d="M993.99 107.25L1006.99 114.75V129.75L993.99 137.25L981 129.75V114.75L993.99 107.25ZM983 115.9V128.6L993.99 134.94L1004.99 128.59V115.9L993.99 109.56L983 115.9ZM980 113L992.98 105.5V98H990.98V104.35L980 110.69V112.99V113ZM980 131.5L992.98 139V147H990.98V140.15L980 133.81V131.51V131.5ZM995 98V105.5L1007.99 113H1008V110.69H1007.99L997 104.35V98H995ZM995 147V139L1007.99 131.5H1008V133.81H1007.99L997 140.15V147H995Z" fill="#111827"/>
</g>
<g clip-path="url(#clip138_1_129)">
<path d="M1021.99 107.25L1034.99 114.75V129.75L1021.99 137.25L1009 129.75V114.75L1021.99 107.25ZM1011 115.9V128.6L1021.99 134.94L1032.99 128.59V115.9L1021.99 109.56L1011 115.9ZM1008 113L1020.98 105.5V98H1018.98V104.35L1008 110.69V112.99V113ZM1008 131.5L1020.98 139V147H1018.98V140.15L1008 133.81V131.51V131.5ZM1023 98V105.5L1035.99 113H1036V110.69H1035.99L1025 104.35V98H1023ZM1023 147V139L1035.99 131.5H1036V133.81H1035.99L1025 140.15V147H1023Z" fill="#111827"/>
</g>
<g clip-path="url(#clip139_1_129)">
<path d="M1049.99 107.25L1062.99 114.75V129.75L1049.99 137.25L1037 129.75V114.75L1049.99 107.25ZM1039 115.9V128.6L1049.99 134.94L1060.99 128.59V115.9L1049.99 109.56L1039 115.9ZM1036 113L1048.98 105.5V98H1046.98V104.35L1036 110.69V112.99V113ZM1036 131.5L1048.98 139V147H1046.98V140.15L1036 133.81V131.51V131.5ZM1051 98V105.5L1063.99 113H1064V110.69H1063.99L1053 104.35V98H1051ZM1051 147V139L1063.99 131.5H1064V133.81H1063.99L1053 140.15V147H1051Z" fill="#111827"/>
</g>
<g clip-path="url(#clip140_1_129)">
<path d="M1077.99 107.25L1090.99 114.75V129.75L1077.99 137.25L1065 129.75V114.75L1077.99 107.25ZM1067 115.9V128.6L1077.99 134.94L1088.99 128.59V115.9L1077.99 109.56L1067 115.9ZM1064 113L1076.98 105.5V98H1074.98V104.35L1064 110.69V112.99V113ZM1064 131.5L1076.98 139V147H1074.98V140.15L1064 133.81V131.51V131.5ZM1079 98V105.5L1091.99 113H1092V110.69H1091.99L1081 104.35V98H1079ZM1079 147V139L1091.99 131.5H1092V133.81H1091.99L1081 140.15V147H1079Z" fill="#111827"/>
</g>
<g clip-path="url(#clip141_1_129)">
<path d="M1105.99 107.25L1118.99 114.75V129.75L1105.99 137.25L1093 129.75V114.75L1105.99 107.25ZM1095 115.9V128.6L1105.99 134.94L1116.99 128.59V115.9L1105.99 109.56L1095 115.9ZM1092 113L1104.98 105.5V98H1102.98V104.35L1092 110.69V112.99V113ZM1092 131.5L1104.98 139V147H1102.98V140.15L1092 133.81V131.51V131.5ZM1107 98V105.5L1119.99 113H1120V110.69H1119.99L1109 104.35V98H1107ZM1107 147V139L1119.99 131.5H1120V133.81H1119.99L1109 140.15V147H1107Z" fill="#111827"/>
</g>
<g clip-path="url(#clip142_1_129)">
<path d="M1133.99 107.25L1146.99 114.75V129.75L1133.99 137.25L1121 129.75V114.75L1133.99 107.25ZM1123 115.9V128.6L1133.99 134.94L1144.99 128.59V115.9L1133.99 109.56L1123 115.9ZM1120 113L1132.98 105.5V98H1130.98V104.35L1120 110.69V112.99V113ZM1120 131.5L1132.98 139V147H1130.98V140.15L1120 133.81V131.51V131.5ZM1135 98V105.5L1147.99 113H1148V110.69H1147.99L1137 104.35V98H1135ZM1135 147V139L1147.99 131.5H1148V133.81H1147.99L1137 140.15V147H1135Z" fill="#111827"/>
</g>
<g clip-path="url(#clip143_1_129)">
<path d="M1161.99 107.25L1174.99 114.75V129.75L1161.99 137.25L1149 129.75V114.75L1161.99 107.25ZM1151 115.9V128.6L1161.99 134.94L1172.99 128.59V115.9L1161.99 109.56L1151 115.9ZM1148 113L1160.98 105.5V98H1158.98V104.35L1148 110.69V112.99V113ZM1148 131.5L1160.98 139V147H1158.98V140.15L1148 133.81V131.51V131.5ZM1163 98V105.5L1175.99 113H1176V110.69H1175.99L1165 104.35V98H1163ZM1163 147V139L1175.99 131.5H1176V133.81H1175.99L1165 140.15V147H1163Z" fill="#111827"/>
</g>
<g clip-path="url(#clip144_1_129)">
<path d="M1189.99 107.25L1202.99 114.75V129.75L1189.99 137.25L1177 129.75V114.75L1189.99 107.25ZM1179 115.9V128.6L1189.99 134.94L1200.99 128.59V115.9L1189.99 109.56L1179 115.9ZM1176 113L1188.98 105.5V98H1186.98V104.35L1176 110.69V112.99V113ZM1176 131.5L1188.98 139V147H1186.98V140.15L1176 133.81V131.51V131.5ZM1191 98V105.5L1203.99 113H1204V110.69H1203.99L1193 104.35V98H1191ZM1191 147V139L1203.99 131.5H1204V133.81H1203.99L1193 140.15V147H1191Z" fill="#111827"/>
</g>
<g clip-path="url(#clip145_1_129)">
<path d="M1217.99 107.25L1230.99 114.75V129.75L1217.99 137.25L1205 129.75V114.75L1217.99 107.25ZM1207 115.9V128.6L1217.99 134.94L1228.99 128.59V115.9L1217.99 109.56L1207 115.9ZM1204 113L1216.98 105.5V98H1214.98V104.35L1204 110.69V112.99V113ZM1204 131.5L1216.98 139V147H1214.98V140.15L1204 133.81V131.51V131.5ZM1219 98V105.5L1231.99 113H1232V110.69H1231.99L1221 104.35V98H1219ZM1219 147V139L1231.99 131.5H1232V133.81H1231.99L1221 140.15V147H1219Z" fill="#111827"/>
</g>
<g clip-path="url(#clip146_1_129)">
<path d="M1245.99 107.25L1258.99 114.75V129.75L1245.99 137.25L1233 129.75V114.75L1245.99 107.25ZM1235 115.9V128.6L1245.99 134.94L1256.99 128.59V115.9L1245.99 109.56L1235 115.9ZM1232 113L1244.98 105.5V98H1242.98V104.35L1232 110.69V112.99V113ZM1232 131.5L1244.98 139V147H1242.98V140.15L1232 133.81V131.51V131.5ZM1247 98V105.5L1259.99 113H1260V110.69H1259.99L1249 104.35V98H1247ZM1247 147V139L1259.99 131.5H1260V133.81H1259.99L1249 140.15V147H1247Z" fill="#111827"/>
</g>
<g clip-path="url(#clip147_1_129)">
<path d="M1273.99 107.25L1286.99 114.75V129.75L1273.99 137.25L1261 129.75V114.75L1273.99 107.25ZM1263 115.9V128.6L1273.99 134.94L1284.99 128.59V115.9L1273.99 109.56L1263 115.9ZM1260 113L1272.98 105.5V98H1270.98V104.35L1260 110.69V112.99V113ZM1260 131.5L1272.98 139V147H1270.98V140.15L1260 133.81V131.51V131.5ZM1275 98V105.5L1287.99 113H1288V110.69H1287.99L1277 104.35V98H1275ZM1275 147V139L1287.99 131.5H1288V133.81H1287.99L1277 140.15V147H1275Z" fill="#111827"/>
</g>
<g clip-path="url(#clip148_1_129)">
<path d="M1301.99 107.25L1314.99 114.75V129.75L1301.99 137.25L1289 129.75V114.75L1301.99 107.25ZM1291 115.9V128.6L1301.99 134.94L1312.99 128.59V115.9L1301.99 109.56L1291 115.9ZM1288 113L1300.98 105.5V98H1298.98V104.35L1288 110.69V112.99V113ZM1288 131.5L1300.98 139V147H1298.98V140.15L1288 133.81V131.51V131.5ZM1303 98V105.5L1315.99 113H1316V110.69H1315.99L1305 104.35V98H1303ZM1303 147V139L1315.99 131.5H1316V133.81H1315.99L1305 140.15V147H1303Z" fill="#111827"/>
</g>
<g clip-path="url(#clip149_1_129)">
<path d="M1329.99 107.25L1342.99 114.75V129.75L1329.99 137.25L1317 129.75V114.75L1329.99 107.25ZM1319 115.9V128.6L1329.99 134.94L1340.99 128.59V115.9L1329.99 109.56L1319 115.9ZM1316 113L1328.98 105.5V98H1326.98V104.35L1316 110.69V112.99V113ZM1316 131.5L1328.98 139V147H1326.98V140.15L1316 133.81V131.51V131.5ZM1331 98V105.5L1343.99 113H1344V110.69H1343.99L1333 104.35V98H1331ZM1331 147V139L1343.99 131.5H1344V133.81H1343.99L1333 140.15V147H1331Z" fill="#111827"/>
</g>
<g clip-path="url(#clip150_1_129)">
<path d="M1357.99 107.25L1370.99 114.75V129.75L1357.99 137.25L1345 129.75V114.75L1357.99 107.25ZM1347 115.9V128.6L1357.99 134.94L1368.99 128.59V115.9L1357.99 109.56L1347 115.9ZM1344 113L1356.98 105.5V98H1354.98V104.35L1344 110.69V112.99V113ZM1344 131.5L1356.98 139V147H1354.98V140.15L1344 133.81V131.51V131.5ZM1359 98V105.5L1371.99 113H1372V110.69H1371.99L1361 104.35V98H1359ZM1359 147V139L1371.99 131.5H1372V133.81H1371.99L1361 140.15V147H1359Z" fill="#111827"/>
</g>
<g clip-path="url(#clip151_1_129)">
<path d="M1385.99 107.25L1398.99 114.75V129.75L1385.99 137.25L1373 129.75V114.75L1385.99 107.25ZM1375 115.9V128.6L1385.99 134.94L1396.99 128.59V115.9L1385.99 109.56L1375 115.9ZM1372 113L1384.98 105.5V98H1382.98V104.35L1372 110.69V112.99V113ZM1372 131.5L1384.98 139V147H1382.98V140.15L1372 133.81V131.51V131.5ZM1387 98V105.5L1399.99 113H1400V110.69H1399.99L1389 104.35V98H1387ZM1387 147V139L1399.99 131.5H1400V133.81H1399.99L1389 140.15V147H1387Z" fill="#111827"/>
</g>
<g clip-path="url(#clip152_1_129)">
<path d="M1413.99 107.25L1426.99 114.75V129.75L1413.99 137.25L1401 129.75V114.75L1413.99 107.25ZM1403 115.9V128.6L1413.99 134.94L1424.99 128.59V115.9L1413.99 109.56L1403 115.9ZM1400 113L1412.98 105.5V98H1410.98V104.35L1400 110.69V112.99V113ZM1400 131.5L1412.98 139V147H1410.98V140.15L1400 133.81V131.51V131.5ZM1415 98V105.5L1427.99 113H1428V110.69H1427.99L1417 104.35V98H1415ZM1415 147V139L1427.99 131.5H1428V133.81H1427.99L1417 140.15V147H1415Z" fill="#111827"/>
</g>
<defs>
<linearGradient id="paint0_linear_1_129" x1="0" y1="0" x2="1428" y2="147" gradientUnits="userSpaceOnUse">
<stop stop-color="#111827"/>
<stop offset="1" stop-color="#030712"/>
</linearGradient>
<clipPath id="clip0_1_129">
<rect width="28" height="49" fill="white"/>
</clipPath>
<clipPath id="clip1_1_129">
<rect width="28" height="49" fill="white" transform="translate(28)"/>
</clipPath>
<clipPath id="clip2_1_129">
<rect width="28" height="49" fill="white" transform="translate(56)"/>
</clipPath>
<clipPath id="clip3_1_129">
<rect width="28" height="49" fill="white" transform="translate(84)"/>
</clipPath>
<clipPath id="clip4_1_129">
<rect width="28" height="49" fill="white" transform="translate(112)"/>
</clipPath>
<clipPath id="clip5_1_129">
<rect width="28" height="49" fill="white" transform="translate(140)"/>
</clipPath>
<clipPath id="clip6_1_129">
<rect width="28" height="49" fill="white" transform="translate(168)"/>
</clipPath>
<clipPath id="clip7_1_129">
<rect width="28" height="49" fill="white" transform="translate(196)"/>
</clipPath>
<clipPath id="clip8_1_129">
<rect width="28" height="49" fill="white" transform="translate(224)"/>
</clipPath>
<clipPath id="clip9_1_129">
<rect width="28" height="49" fill="white" transform="translate(252)"/>
</clipPath>
<clipPath id="clip10_1_129">
<rect width="28" height="49" fill="white" transform="translate(280)"/>
</clipPath>
<clipPath id="clip11_1_129">
<rect width="28" height="49" fill="white" transform="translate(308)"/>
</clipPath>
<clipPath id="clip12_1_129">
<rect width="28" height="49" fill="white" transform="translate(336)"/>
</clipPath>
<clipPath id="clip13_1_129">
<rect width="28" height="49" fill="white" transform="translate(364)"/>
</clipPath>
<clipPath id="clip14_1_129">
<rect width="28" height="49" fill="white" transform="translate(392)"/>
</clipPath>
<clipPath id="clip15_1_129">
<rect width="28" height="49" fill="white" transform="translate(420)"/>
</clipPath>
<clipPath id="clip16_1_129">
<rect width="28" height="49" fill="white" transform="translate(448)"/>
</clipPath>
<clipPath id="clip17_1_129">
<rect width="28" height="49" fill="white" transform="translate(476)"/>
</clipPath>
<clipPath id="clip18_1_129">
<rect width="28" height="49" fill="white" transform="translate(504)"/>
</clipPath>
<clipPath id="clip19_1_129">
<rect width="28" height="49" fill="white" transform="translate(532)"/>
</clipPath>
<clipPath id="clip20_1_129">
<rect width="28" height="49" fill="white" transform="translate(560)"/>
</clipPath>
<clipPath id="clip21_1_129">
<rect width="28" height="49" fill="white" transform="translate(588)"/>
</clipPath>
<clipPath id="clip22_1_129">
<rect width="28" height="49" fill="white" transform="translate(616)"/>
</clipPath>
<clipPath id="clip23_1_129">
<rect width="28" height="49" fill="white" transform="translate(644)"/>
</clipPath>
<clipPath id="clip24_1_129">
<rect width="28" height="49" fill="white" transform="translate(672)"/>
</clipPath>
<clipPath id="clip25_1_129">
<rect width="28" height="49" fill="white" transform="translate(700)"/>
</clipPath>
<clipPath id="clip26_1_129">
<rect width="28" height="49" fill="white" transform="translate(728)"/>
</clipPath>
<clipPath id="clip27_1_129">
<rect width="28" height="49" fill="white" transform="translate(756)"/>
</clipPath>
<clipPath id="clip28_1_129">
<rect width="28" height="49" fill="white" transform="translate(784)"/>
</clipPath>
<clipPath id="clip29_1_129">
<rect width="28" height="49" fill="white" transform="translate(812)"/>
</clipPath>
<clipPath id="clip30_1_129">
<rect width="28" height="49" fill="white" transform="translate(840)"/>
</clipPath>
<clipPath id="clip31_1_129">
<rect width="28" height="49" fill="white" transform="translate(868)"/>
</clipPath>
<clipPath id="clip32_1_129">
<rect width="28" height="49" fill="white" transform="translate(896)"/>
</clipPath>
<clipPath id="clip33_1_129">
<rect width="28" height="49" fill="white" transform="translate(924)"/>
</clipPath>
<clipPath id="clip34_1_129">
<rect width="28" height="49" fill="white" transform="translate(952)"/>
</clipPath>
<clipPath id="clip35_1_129">
<rect width="28" height="49" fill="white" transform="translate(980)"/>
</clipPath>
<clipPath id="clip36_1_129">
<rect width="28" height="49" fill="white" transform="translate(1008)"/>
</clipPath>
<clipPath id="clip37_1_129">
<rect width="28" height="49" fill="white" transform="translate(1036)"/>
</clipPath>
<clipPath id="clip38_1_129">
<rect width="28" height="49" fill="white" transform="translate(1064)"/>
</clipPath>
<clipPath id="clip39_1_129">
<rect width="28" height="49" fill="white" transform="translate(1092)"/>
</clipPath>
<clipPath id="clip40_1_129">
<rect width="28" height="49" fill="white" transform="translate(1120)"/>
</clipPath>
<clipPath id="clip41_1_129">
<rect width="28" height="49" fill="white" transform="translate(1148)"/>
</clipPath>
<clipPath id="clip42_1_129">
<rect width="28" height="49" fill="white" transform="translate(1176)"/>
</clipPath>
<clipPath id="clip43_1_129">
<rect width="28" height="49" fill="white" transform="translate(1204)"/>
</clipPath>
<clipPath id="clip44_1_129">
<rect width="28" height="49" fill="white" transform="translate(1232)"/>
</clipPath>
<clipPath id="clip45_1_129">
<rect width="28" height="49" fill="white" transform="translate(1260)"/>
</clipPath>
<clipPath id="clip46_1_129">
<rect width="28" height="49" fill="white" transform="translate(1288)"/>
</clipPath>
<clipPath id="clip47_1_129">
<rect width="28" height="49" fill="white" transform="translate(1316)"/>
</clipPath>
<clipPath id="clip48_1_129">
<rect width="28" height="49" fill="white" transform="translate(1344)"/>
</clipPath>
<clipPath id="clip49_1_129">
<rect width="28" height="49" fill="white" transform="translate(1372)"/>
</clipPath>
<clipPath id="clip50_1_129">
<rect width="28" height="49" fill="white" transform="translate(1400)"/>
</clipPath>
<clipPath id="clip51_1_129">
<rect width="28" height="49" fill="white" transform="translate(0 49)"/>
</clipPath>
<clipPath id="clip52_1_129">
<rect width="28" height="49" fill="white" transform="translate(28 49)"/>
</clipPath>
<clipPath id="clip53_1_129">
<rect width="28" height="49" fill="white" transform="translate(56 49)"/>
</clipPath>
<clipPath id="clip54_1_129">
<rect width="28" height="49" fill="white" transform="translate(84 49)"/>
</clipPath>
<clipPath id="clip55_1_129">
<rect width="28" height="49" fill="white" transform="translate(112 49)"/>
</clipPath>
<clipPath id="clip56_1_129">
<rect width="28" height="49" fill="white" transform="translate(140 49)"/>
</clipPath>
<clipPath id="clip57_1_129">
<rect width="28" height="49" fill="white" transform="translate(168 49)"/>
</clipPath>
<clipPath id="clip58_1_129">
<rect width="28" height="49" fill="white" transform="translate(196 49)"/>
</clipPath>
<clipPath id="clip59_1_129">
<rect width="28" height="49" fill="white" transform="translate(224 49)"/>
</clipPath>
<clipPath id="clip60_1_129">
<rect width="28" height="49" fill="white" transform="translate(252 49)"/>
</clipPath>
<clipPath id="clip61_1_129">
<rect width="28" height="49" fill="white" transform="translate(280 49)"/>
</clipPath>
<clipPath id="clip62_1_129">
<rect width="28" height="49" fill="white" transform="translate(308 49)"/>
</clipPath>
<clipPath id="clip63_1_129">
<rect width="28" height="49" fill="white" transform="translate(336 49)"/>
</clipPath>
<clipPath id="clip64_1_129">
<rect width="28" height="49" fill="white" transform="translate(364 49)"/>
</clipPath>
<clipPath id="clip65_1_129">
<rect width="28" height="49" fill="white" transform="translate(392 49)"/>
</clipPath>
<clipPath id="clip66_1_129">
<rect width="28" height="49" fill="white" transform="translate(420 49)"/>
</clipPath>
<clipPath id="clip67_1_129">
<rect width="28" height="49" fill="white" transform="translate(448 49)"/>
</clipPath>
<clipPath id="clip68_1_129">
<rect width="28" height="49" fill="white" transform="translate(476 49)"/>
</clipPath>
<clipPath id="clip69_1_129">
<rect width="28" height="49" fill="white" transform="translate(504 49)"/>
</clipPath>
<clipPath id="clip70_1_129">
<rect width="28" height="49" fill="white" transform="translate(532 49)"/>
</clipPath>
<clipPath id="clip71_1_129">
<rect width="28" height="49" fill="white" transform="translate(560 49)"/>
</clipPath>
<clipPath id="clip72_1_129">
<rect width="28" height="49" fill="white" transform="translate(588 49)"/>
</clipPath>
<clipPath id="clip73_1_129">
<rect width="28" height="49" fill="white" transform="translate(616 49)"/>
</clipPath>
<clipPath id="clip74_1_129">
<rect width="28" height="49" fill="white" transform="translate(644 49)"/>
</clipPath>
<clipPath id="clip75_1_129">
<rect width="28" height="49" fill="white" transform="translate(672 49)"/>
</clipPath>
<clipPath id="clip76_1_129">
<rect width="28" height="49" fill="white" transform="translate(700 49)"/>
</clipPath>
<clipPath id="clip77_1_129">
<rect width="28" height="49" fill="white" transform="translate(728 49)"/>
</clipPath>
<clipPath id="clip78_1_129">
<rect width="28" height="49" fill="white" transform="translate(756 49)"/>
</clipPath>
<clipPath id="clip79_1_129">
<rect width="28" height="49" fill="white" transform="translate(784 49)"/>
</clipPath>
<clipPath id="clip80_1_129">
<rect width="28" height="49" fill="white" transform="translate(812 49)"/>
</clipPath>
<clipPath id="clip81_1_129">
<rect width="28" height="49" fill="white" transform="translate(840 49)"/>
</clipPath>
<clipPath id="clip82_1_129">
<rect width="28" height="49" fill="white" transform="translate(868 49)"/>
</clipPath>
<clipPath id="clip83_1_129">
<rect width="28" height="49" fill="white" transform="translate(896 49)"/>
</clipPath>
<clipPath id="clip84_1_129">
<rect width="28" height="49" fill="white" transform="translate(924 49)"/>
</clipPath>
<clipPath id="clip85_1_129">
<rect width="28" height="49" fill="white" transform="translate(952 49)"/>
</clipPath>
<clipPath id="clip86_1_129">
<rect width="28" height="49" fill="white" transform="translate(980 49)"/>
</clipPath>
<clipPath id="clip87_1_129">
<rect width="28" height="49" fill="white" transform="translate(1008 49)"/>
</clipPath>
<clipPath id="clip88_1_129">
<rect width="28" height="49" fill="white" transform="translate(1036 49)"/>
</clipPath>
<clipPath id="clip89_1_129">
<rect width="28" height="49" fill="white" transform="translate(1064 49)"/>
</clipPath>
<clipPath id="clip90_1_129">
<rect width="28" height="49" fill="white" transform="translate(1092 49)"/>
</clipPath>
<clipPath id="clip91_1_129">
<rect width="28" height="49" fill="white" transform="translate(1120 49)"/>
</clipPath>
<clipPath id="clip92_1_129">
<rect width="28" height="49" fill="white" transform="translate(1148 49)"/>
</clipPath>
<clipPath id="clip93_1_129">
<rect width="28" height="49" fill="white" transform="translate(1176 49)"/>
</clipPath>
<clipPath id="clip94_1_129">
<rect width="28" height="49" fill="white" transform="translate(1204 49)"/>
</clipPath>
<clipPath id="clip95_1_129">
<rect width="28" height="49" fill="white" transform="translate(1232 49)"/>
</clipPath>
<clipPath id="clip96_1_129">
<rect width="28" height="49" fill="white" transform="translate(1260 49)"/>
</clipPath>
<clipPath id="clip97_1_129">
<rect width="28" height="49" fill="white" transform="translate(1288 49)"/>
</clipPath>
<clipPath id="clip98_1_129">
<rect width="28" height="49" fill="white" transform="translate(1316 49)"/>
</clipPath>
<clipPath id="clip99_1_129">
<rect width="28" height="49" fill="white" transform="translate(1344 49)"/>
</clipPath>
<clipPath id="clip100_1_129">
<rect width="28" height="49" fill="white" transform="translate(1372 49)"/>
</clipPath>
<clipPath id="clip101_1_129">
<rect width="28" height="49" fill="white" transform="translate(1400 49)"/>
</clipPath>
<clipPath id="clip102_1_129">
<rect width="28" height="49" fill="white" transform="translate(0 98)"/>
</clipPath>
<clipPath id="clip103_1_129">
<rect width="28" height="49" fill="white" transform="translate(28 98)"/>
</clipPath>
<clipPath id="clip104_1_129">
<rect width="28" height="49" fill="white" transform="translate(56 98)"/>
</clipPath>
<clipPath id="clip105_1_129">
<rect width="28" height="49" fill="white" transform="translate(84 98)"/>
</clipPath>
<clipPath id="clip106_1_129">
<rect width="28" height="49" fill="white" transform="translate(112 98)"/>
</clipPath>
<clipPath id="clip107_1_129">
<rect width="28" height="49" fill="white" transform="translate(140 98)"/>
</clipPath>
<clipPath id="clip108_1_129">
<rect width="28" height="49" fill="white" transform="translate(168 98)"/>
</clipPath>
<clipPath id="clip109_1_129">
<rect width="28" height="49" fill="white" transform="translate(196 98)"/>
</clipPath>
<clipPath id="clip110_1_129">
<rect width="28" height="49" fill="white" transform="translate(224 98)"/>
</clipPath>
<clipPath id="clip111_1_129">
<rect width="28" height="49" fill="white" transform="translate(252 98)"/>
</clipPath>
<clipPath id="clip112_1_129">
<rect width="28" height="49" fill="white" transform="translate(280 98)"/>
</clipPath>
<clipPath id="clip113_1_129">
<rect width="28" height="49" fill="white" transform="translate(308 98)"/>
</clipPath>
<clipPath id="clip114_1_129">
<rect width="28" height="49" fill="white" transform="translate(336 98)"/>
</clipPath>
<clipPath id="clip115_1_129">
<rect width="28" height="49" fill="white" transform="translate(364 98)"/>
</clipPath>
<clipPath id="clip116_1_129">
<rect width="28" height="49" fill="white" transform="translate(392 98)"/>
</clipPath>
<clipPath id="clip117_1_129">
<rect width="28" height="49" fill="white" transform="translate(420 98)"/>
</clipPath>
<clipPath id="clip118_1_129">
<rect width="28" height="49" fill="white" transform="translate(448 98)"/>
</clipPath>
<clipPath id="clip119_1_129">
<rect width="28" height="49" fill="white" transform="translate(476 98)"/>
</clipPath>
<clipPath id="clip120_1_129">
<rect width="28" height="49" fill="white" transform="translate(504 98)"/>
</clipPath>
<clipPath id="clip121_1_129">
<rect width="28" height="49" fill="white" transform="translate(532 98)"/>
</clipPath>
<clipPath id="clip122_1_129">
<rect width="28" height="49" fill="white" transform="translate(560 98)"/>
</clipPath>
<clipPath id="clip123_1_129">
<rect width="28" height="49" fill="white" transform="translate(588 98)"/>
</clipPath>
<clipPath id="clip124_1_129">
<rect width="28" height="49" fill="white" transform="translate(616 98)"/>
</clipPath>
<clipPath id="clip125_1_129">
<rect width="28" height="49" fill="white" transform="translate(644 98)"/>
</clipPath>
<clipPath id="clip126_1_129">
<rect width="28" height="49" fill="white" transform="translate(672 98)"/>
</clipPath>
<clipPath id="clip127_1_129">
<rect width="28" height="49" fill="white" transform="translate(700 98)"/>
</clipPath>
<clipPath id="clip128_1_129">
<rect width="28" height="49" fill="white" transform="translate(728 98)"/>
</clipPath>
<clipPath id="clip129_1_129">
<rect width="28" height="49" fill="white" transform="translate(756 98)"/>
</clipPath>
<clipPath id="clip130_1_129">
<rect width="28" height="49" fill="white" transform="translate(784 98)"/>
</clipPath>
<clipPath id="clip131_1_129">
<rect width="28" height="49" fill="white" transform="translate(812 98)"/>
</clipPath>
<clipPath id="clip132_1_129">
<rect width="28" height="49" fill="white" transform="translate(840 98)"/>
</clipPath>
<clipPath id="clip133_1_129">
<rect width="28" height="49" fill="white" transform="translate(868 98)"/>
</clipPath>
<clipPath id="clip134_1_129">
<rect width="28" height="49" fill="white" transform="translate(896 98)"/>
</clipPath>
<clipPath id="clip135_1_129">
<rect width="28" height="49" fill="white" transform="translate(924 98)"/>
</clipPath>
<clipPath id="clip136_1_129">
<rect width="28" height="49" fill="white" transform="translate(952 98)"/>
</clipPath>
<clipPath id="clip137_1_129">
<rect width="28" height="49" fill="white" transform="translate(980 98)"/>
</clipPath>
<clipPath id="clip138_1_129">
<rect width="28" height="49" fill="white" transform="translate(1008 98)"/>
</clipPath>
<clipPath id="clip139_1_129">
<rect width="28" height="49" fill="white" transform="translate(1036 98)"/>
</clipPath>
<clipPath id="clip140_1_129">
<rect width="28" height="49" fill="white" transform="translate(1064 98)"/>
</clipPath>
<clipPath id="clip141_1_129">
<rect width="28" height="49" fill="white" transform="translate(1092 98)"/>
</clipPath>
<clipPath id="clip142_1_129">
<rect width="28" height="49" fill="white" transform="translate(1120 98)"/>
</clipPath>
<clipPath id="clip143_1_129">
<rect width="28" height="49" fill="white" transform="translate(1148 98)"/>
</clipPath>
<clipPath id="clip144_1_129">
<rect width="28" height="49" fill="white" transform="translate(1176 98)"/>
</clipPath>
<clipPath id="clip145_1_129">
<rect width="28" height="49" fill="white" transform="translate(1204 98)"/>
</clipPath>
<clipPath id="clip146_1_129">
<rect width="28" height="49" fill="white" transform="translate(1232 98)"/>
</clipPath>
<clipPath id="clip147_1_129">
<rect width="28" height="49" fill="white" transform="translate(1260 98)"/>
</clipPath>
<clipPath id="clip148_1_129">
<rect width="28" height="49" fill="white" transform="translate(1288 98)"/>
</clipPath>
<clipPath id="clip149_1_129">
<rect width="28" height="49" fill="white" transform="translate(1316 98)"/>
</clipPath>
<clipPath id="clip150_1_129">
<rect width="28" height="49" fill="white" transform="translate(1344 98)"/>
</clipPath>
<clipPath id="clip151_1_129">
<rect width="28" height="49" fill="white" transform="translate(1372 98)"/>
</clipPath>
<clipPath id="clip152_1_129">
<rect width="28" height="49" fill="white" transform="translate(1400 98)"/>
</clipPath>
</defs>
</svg>
