<svg width="319" height="37" viewBox="0 0 319 37" fill="none" xmlns="http://www.w3.org/2000/svg">
<path d="M1.2 35L6.576 1.15997H15.408L13.344 14.216H27.264L29.376 1.15997H38.16L32.784 35H24L26.112 21.464H12.192L10.032 35H1.2Z" fill="#B91C1C"/>
<path d="M46.6144 35.528C45.0784 35.528 43.7024 35.176 42.4864 34.472C41.2704 33.768 40.2944 32.856 39.5584 31.736C38.8544 30.584 38.5024 29.352 38.5024 28.04C38.5024 25.544 39.5744 23.736 41.7184 22.616C43.8624 21.464 47.1904 20.888 51.7024 20.888H54.9664L55.0144 20.456C55.2064 19.4 54.9664 18.568 54.2944 17.96C53.6544 17.352 52.5984 17.048 51.1264 17.048C48.3104 17.048 45.5584 17.816 42.8704 19.352L41.2864 13.688C42.5344 12.856 44.1664 12.184 46.1824 11.672C48.2304 11.128 50.2784 10.856 52.3264 10.856C55.2384 10.856 57.5104 11.384 59.1424 12.44C60.7744 13.496 61.8624 14.92 62.4064 16.712C62.9824 18.472 63.0944 20.392 62.7424 22.472L60.7744 35H52.8544L53.3824 31.592C52.6144 33 51.6384 34.008 50.4544 34.616C49.3024 35.224 48.0224 35.528 46.6144 35.528ZM49.5904 29.96C50.8384 29.96 51.8624 29.592 52.6624 28.856C53.4624 28.12 53.9584 27.16 54.1504 25.976L54.2944 24.92H51.7024C49.9104 24.92 48.6144 25.128 47.8144 25.544C47.0464 25.928 46.6624 26.568 46.6624 27.464C46.6624 28.264 46.9344 28.888 47.4784 29.336C48.0224 29.752 48.7264 29.96 49.5904 29.96Z" fill="#B91C1C"/>
<path d="M75.1916 35.528C72.0556 35.528 69.7996 34.68 68.4236 32.984C67.0796 31.288 66.6476 28.824 67.1276 25.592L71.0156 1.15997H79.5596L75.6716 25.448C75.3516 27.624 76.2156 28.712 78.2636 28.712C78.5836 28.712 78.9036 28.696 79.2236 28.664C79.5756 28.632 79.9116 28.6 80.2316 28.568L79.1276 35.048C77.9756 35.368 76.6636 35.528 75.1916 35.528Z" fill="#B91C1C"/>
<path d="M91.8791 35.528C88.7431 35.528 86.4871 34.68 85.1111 32.984C83.7671 31.288 83.3351 28.824 83.8151 25.592L87.7031 1.15997H96.2471L92.3591 25.448C92.0391 27.624 92.9031 28.712 94.9511 28.712C95.2711 28.712 95.5911 28.696 95.9111 28.664C96.2631 28.632 96.5991 28.6 96.9191 28.568L95.8151 35.048C94.6631 35.368 93.3511 35.528 91.8791 35.528Z" fill="#B91C1C"/>
<path fill-rule="evenodd" clip-rule="evenodd" d="M0.028595 36L5.72233 0.159973H16.5785L14.5145 13.216H26.4128L28.5248 0.159973H39.3314L33.6377 36H22.8319L24.9439 22.464H13.0451L10.8851 36H0.028595ZM12.192 21.464H26.112L24 35H32.784L38.16 1.15997H29.376L27.264 14.216H13.344L15.408 1.15997H6.576L1.2 35H10.032L12.192 21.464ZM38.7137 32.2714L38.7051 32.2574C37.9081 30.9532 37.5024 29.5415 37.5024 28.04C37.5024 26.6464 37.8028 25.3871 38.4462 24.302C39.0898 23.2166 40.0414 22.3648 41.2505 21.7322C43.6173 20.4625 47.1473 19.888 51.7024 19.888H54.0766C54.1026 19.3303 53.9236 18.973 53.6235 18.7015L53.6144 18.6933L53.6056 18.685C53.242 18.3396 52.5026 18.048 51.1264 18.048C48.5013 18.048 45.9188 18.7618 43.3665 20.2202L42.2528 20.8566L40.1279 13.2584L40.7317 12.8559C42.1015 11.9427 43.8466 11.2339 45.9308 10.7041C48.0579 10.1396 50.1905 9.85597 52.3264 9.85597C55.3413 9.85597 57.83 10.3997 59.6856 11.6004C61.5047 12.7775 62.7435 14.3886 63.3601 16.411C63.9896 18.3407 64.1027 20.4214 63.7294 22.6327L61.6296 36H51.6875L51.8546 34.9212C51.5577 35.1395 51.245 35.3337 50.9165 35.5028C49.6104 36.1911 48.1697 36.528 46.6144 36.528C44.9193 36.528 43.3676 36.1376 41.9853 35.3374C40.6414 34.5593 39.5483 33.5415 38.7227 32.2852L38.7137 32.2714ZM50.4544 34.616C51.0538 34.3082 51.5999 33.8979 52.0926 33.385C52.5733 32.8849 53.0032 32.2872 53.3824 31.592L52.8544 35H60.7744L62.7424 22.472C63.0944 20.392 62.9824 18.472 62.4064 16.712C61.8624 14.92 60.7744 13.496 59.1424 12.44C57.5104 11.384 55.2384 10.856 52.3264 10.856C50.2784 10.856 48.2304 11.128 46.1824 11.672C44.1664 12.184 42.5344 12.856 41.2864 13.688L42.8704 19.352C43.1704 19.1805 43.4713 19.0186 43.7729 18.8663C46.1736 17.6541 48.6247 17.048 51.1264 17.048C52.5984 17.048 53.6544 17.352 54.2944 17.96C54.9664 18.568 55.2064 19.4 55.0144 20.456L54.9664 20.888H51.7024C47.1904 20.888 43.8624 21.464 41.7184 22.616C39.5744 23.736 38.5024 25.544 38.5024 28.04C38.5024 29.352 38.8544 30.584 39.5584 31.736C40.2944 32.856 41.2704 33.768 42.4864 34.472C43.7024 35.176 45.0784 35.528 46.6144 35.528C48.0224 35.528 49.3024 35.224 50.4544 34.616ZM48.2687 26.4349L48.2616 26.4384C48.0215 26.5584 47.888 26.693 47.8079 26.8265C47.7263 26.9625 47.6624 27.1607 47.6624 27.464C47.6624 28.0017 47.8281 28.3225 48.1005 28.5527C48.4282 28.7976 48.898 28.96 49.5904 28.96C50.6273 28.96 51.3972 28.6611 51.9853 28.12C52.5812 27.5718 52.9746 26.8558 53.1453 25.92H51.7024C49.9422 25.92 48.8513 26.1319 48.2757 26.4312L48.2687 26.4349ZM54.1504 25.976C53.9584 27.16 53.4624 28.12 52.6624 28.856C51.8624 29.592 50.8384 29.96 49.5904 29.96C48.7264 29.96 48.0224 29.752 47.4784 29.336C46.9344 28.888 46.6624 28.264 46.6624 27.464C46.6624 26.568 47.0464 25.928 47.8144 25.544C48.6144 25.128 49.9104 24.92 51.7024 24.92H54.2944L54.1504 25.976ZM67.6399 33.6051C66.0531 31.6027 65.6385 28.8117 66.1385 25.4451L66.14 25.4348L70.1622 0.159973H80.7324L76.661 25.5935C76.6607 25.5955 76.6604 25.5975 76.6601 25.5996C76.519 26.5657 76.6809 27.0451 76.8627 27.2741C77.0283 27.4826 77.3952 27.712 78.2636 27.712C78.5502 27.712 78.837 27.6976 79.1241 27.6689L79.1331 27.668C79.4824 27.6363 79.8154 27.6046 80.1321 27.5729L81.4378 27.4424L80.0068 35.8416L79.3953 36.0115C78.1388 36.3605 76.7341 36.528 75.1916 36.528C71.8909 36.528 69.2849 35.6328 67.6471 33.614L67.6399 33.6051ZM75.6716 25.448L79.5596 1.15997H71.0156L67.1276 25.592C66.6476 28.824 67.0796 31.288 68.4236 32.984C69.7996 34.68 72.0556 35.528 75.1916 35.528C76.6636 35.528 77.9756 35.368 79.1276 35.048L80.2316 28.568C79.9116 28.6 79.5756 28.632 79.2236 28.664C79.2159 28.6647 79.2082 28.6655 79.2005 28.6663C78.8882 28.6967 78.5759 28.712 78.2636 28.712C76.2156 28.712 75.3516 27.624 75.6716 25.448ZM84.3274 33.6051C82.7406 31.6027 82.326 28.8117 82.826 25.4451L82.8275 25.4348L86.8497 0.159973H97.4199L93.3485 25.5935C93.3482 25.5955 93.3479 25.5975 93.3476 25.5996C93.2065 26.5657 93.3684 27.0451 93.5502 27.2741C93.7158 27.4826 94.0827 27.712 94.9511 27.712C95.2377 27.712 95.5245 27.6976 95.8116 27.6689L95.8206 27.668C96.1699 27.6363 96.5029 27.6046 96.8196 27.5729L98.1253 27.4424L96.6943 35.8416L96.0828 36.0115C94.8263 36.3605 93.4216 36.528 91.8791 36.528C88.5784 36.528 85.9724 35.6328 84.3346 33.614L84.3274 33.6051ZM92.3591 25.448L96.2471 1.15997H87.7031L83.8151 25.592C83.3351 28.824 83.7671 31.288 85.1111 32.984C86.4871 34.68 88.7431 35.528 91.8791 35.528C93.3511 35.528 94.6631 35.368 95.8151 35.048L96.9191 28.568C96.5991 28.6 96.2631 28.632 95.9111 28.664C95.9034 28.6647 95.8957 28.6655 95.888 28.6663C95.5757 28.6967 95.2634 28.712 94.9511 28.712C92.9031 28.712 92.0391 27.624 92.3591 25.448Z" fill="white"/>
<path d="M105.768 27.264C103.832 27.264 102.336 26.76 101.28 25.752C100.224 24.744 99.696 23.408 99.696 21.744C99.696 20.608 99.888 19.616 100.272 18.768C100.672 17.904 101.2 17.192 101.856 16.632C102.528 16.056 103.28 15.632 104.112 15.36C104.944 15.072 105.8 14.928 106.68 14.928C108.6 14.928 110.088 15.432 111.144 16.44C112.216 17.448 112.752 18.776 112.752 20.424C112.752 21.576 112.552 22.584 112.152 23.448C111.768 24.296 111.24 25.008 110.568 25.584C109.912 26.144 109.168 26.568 108.336 26.856C107.504 27.128 106.648 27.264 105.768 27.264ZM105.84 24.12C106.656 24.12 107.296 23.76 107.76 23.04C108.224 22.32 108.456 21.408 108.456 20.304C108.456 19.584 108.288 19.032 107.952 18.648C107.632 18.264 107.176 18.072 106.584 18.072C105.784 18.072 105.152 18.432 104.688 19.152C104.224 19.856 103.992 20.768 103.992 21.888C103.992 22.608 104.152 23.16 104.472 23.544C104.808 23.928 105.264 24.12 105.84 24.12Z" fill="white"/>
<path d="M114.64 27L116.008 18.336H113.8L114.304 15.192H116.512L116.536 15C116.696 14.024 117.016 13.176 117.496 12.456C117.976 11.72 118.664 11.144 119.56 10.728C120.472 10.296 121.656 10.056 123.112 10.008L124.792 9.93597L124.672 12.984L123.352 13.056C122.52 13.104 121.912 13.264 121.528 13.536C121.144 13.808 120.912 14.248 120.832 14.856L120.76 15.192H123.664L123.184 18.336H120.28L118.912 27H114.64Z" fill="white"/>
<path d="M124.248 35L129.576 1.15997H153.192L152.136 7.97597H137.352L136.248 14.792H149.976L148.92 21.56H135.192L133.08 35H124.248Z" fill="#1E40AF"/>
<path d="M163.583 35.528C159.711 35.528 156.719 34.52 154.607 32.504C152.495 30.488 151.439 27.816 151.439 24.488C151.439 22.216 151.823 20.232 152.591 18.536C153.391 16.808 154.447 15.384 155.759 14.264C157.103 13.112 158.607 12.264 160.271 11.72C161.935 11.144 163.647 10.856 165.407 10.856C169.247 10.856 172.223 11.864 174.335 13.88C176.479 15.896 177.551 18.552 177.551 21.848C177.551 24.152 177.151 26.168 176.351 27.896C175.583 29.592 174.527 31.016 173.183 32.168C171.871 33.288 170.383 34.136 168.719 34.712C167.055 35.256 165.343 35.528 163.583 35.528ZM163.727 29.24C165.359 29.24 166.639 28.52 167.567 27.08C168.495 25.64 168.959 23.816 168.959 21.608C168.959 20.168 168.623 19.064 167.951 18.296C167.311 17.528 166.399 17.144 165.215 17.144C163.615 17.144 162.351 17.864 161.423 19.304C160.495 20.712 160.031 22.536 160.031 24.776C160.031 26.216 160.351 27.32 160.991 28.088C161.663 28.856 162.575 29.24 163.727 29.24Z" fill="#1E40AF"/>
<path d="M192.458 35.528C188.586 35.528 185.594 34.52 183.482 32.504C181.37 30.488 180.314 27.816 180.314 24.488C180.314 22.216 180.698 20.232 181.466 18.536C182.266 16.808 183.322 15.384 184.634 14.264C185.978 13.112 187.482 12.264 189.146 11.72C190.81 11.144 192.522 10.856 194.282 10.856C198.122 10.856 201.098 11.864 203.21 13.88C205.354 15.896 206.426 18.552 206.426 21.848C206.426 24.152 206.026 26.168 205.226 27.896C204.458 29.592 203.402 31.016 202.058 32.168C200.746 33.288 199.258 34.136 197.594 34.712C195.93 35.256 194.218 35.528 192.458 35.528ZM192.602 29.24C194.234 29.24 195.514 28.52 196.442 27.08C197.37 25.64 197.834 23.816 197.834 21.608C197.834 20.168 197.498 19.064 196.826 18.296C196.186 17.528 195.274 17.144 194.09 17.144C192.49 17.144 191.226 17.864 190.298 19.304C189.37 20.712 188.906 22.536 188.906 24.776C188.906 26.216 189.226 27.32 189.866 28.088C190.538 28.856 191.45 29.24 192.602 29.24Z" fill="#1E40AF"/>
<path d="M221.099 35.528C218.667 35.528 216.682 35.096 215.146 34.232C213.61 33.368 212.539 32.168 211.931 30.632C211.323 29.096 211.178 27.336 211.498 25.352L212.746 17.672H208.33L209.339 11.384H213.755L214.811 4.51997H223.354L222.299 11.384H229.115L228.106 17.672H221.29L220.09 25.016C219.899 26.328 220.091 27.272 220.667 27.848C221.275 28.392 222.155 28.664 223.307 28.664C224.075 28.664 224.923 28.52 225.851 28.232L226.09 34.568C225.418 34.888 224.635 35.128 223.739 35.288C222.843 35.448 221.963 35.528 221.099 35.528Z" fill="#1E40AF"/>
<path d="M244.512 35.528C242.912 35.528 241.488 35.192 240.24 34.52C239.024 33.848 238.112 32.872 237.504 31.592L236.928 35H228.624L234 1.15997H242.544L240.432 14.312C241.328 13.192 242.4 12.344 243.648 11.768C244.896 11.16 246.256 10.856 247.728 10.856C250.384 10.856 252.496 11.784 254.064 13.64C255.664 15.464 256.464 17.96 256.464 21.128C256.464 23.88 255.968 26.344 254.976 28.52C253.984 30.696 252.592 32.408 250.8 33.656C249.008 34.904 246.912 35.528 244.512 35.528ZM242.688 29.24C244.288 29.24 245.552 28.52 246.48 27.08C247.408 25.64 247.872 23.816 247.872 21.608C247.872 20.168 247.536 19.064 246.864 18.296C246.224 17.528 245.328 17.144 244.176 17.144C242.544 17.144 241.264 17.864 240.336 19.304C239.408 20.744 238.944 22.568 238.944 24.776C238.944 26.216 239.264 27.32 239.904 28.088C240.576 28.856 241.504 29.24 242.688 29.24Z" fill="#1E40AF"/>
<path d="M266.646 35.528C265.11 35.528 263.734 35.176 262.518 34.472C261.302 33.768 260.326 32.856 259.59 31.736C258.886 30.584 258.534 29.352 258.534 28.04C258.534 25.544 259.606 23.736 261.75 22.616C263.894 21.464 267.222 20.888 271.734 20.888H274.998L275.046 20.456C275.238 19.4 274.998 18.568 274.326 17.96C273.686 17.352 272.63 17.048 271.158 17.048C268.342 17.048 265.59 17.816 262.902 19.352L261.318 13.688C262.566 12.856 264.198 12.184 266.214 11.672C268.262 11.128 270.31 10.856 272.358 10.856C275.27 10.856 277.542 11.384 279.174 12.44C280.806 13.496 281.894 14.92 282.438 16.712C283.014 18.472 283.126 20.392 282.774 22.472L280.806 35H272.886L273.414 31.592C272.646 33 271.67 34.008 270.486 34.616C269.334 35.224 268.054 35.528 266.646 35.528ZM269.622 29.96C270.87 29.96 271.894 29.592 272.694 28.856C273.494 28.12 273.99 27.16 274.182 25.976L274.326 24.92H271.734C269.942 24.92 268.646 25.128 267.846 25.544C267.078 25.928 266.694 26.568 266.694 27.464C266.694 28.264 266.966 28.888 267.51 29.336C268.054 29.752 268.758 29.96 269.622 29.96Z" fill="#1E40AF"/>
<path d="M295.223 35.528C292.087 35.528 289.831 34.68 288.455 32.984C287.111 31.288 286.679 28.824 287.159 25.592L291.047 1.15997H299.591L295.703 25.448C295.383 27.624 296.247 28.712 298.295 28.712C298.615 28.712 298.935 28.696 299.255 28.664C299.607 28.632 299.943 28.6 300.263 28.568L299.159 35.048C298.007 35.368 296.695 35.528 295.223 35.528Z" fill="#1E40AF"/>
<path d="M311.91 35.528C308.774 35.528 306.518 34.68 305.142 32.984C303.798 31.288 303.366 28.824 303.846 25.592L307.734 1.15997H316.278L312.39 25.448C312.07 27.624 312.934 28.712 314.982 28.712C315.302 28.712 315.622 28.696 315.942 28.664C316.294 28.632 316.63 28.6 316.95 28.568L315.846 35.048C314.694 35.368 313.382 35.528 311.91 35.528Z" fill="#1E40AF"/>
<path fill-rule="evenodd" clip-rule="evenodd" d="M123.078 36L128.721 0.159973H154.359L152.993 8.97597H138.203L137.423 13.792H151.144L149.776 22.56H136.047L133.935 36H123.078ZM135.192 21.56H148.92L149.976 14.792H136.248L137.352 7.97597H152.136L153.192 1.15997H129.576L124.248 35H133.08L135.192 21.56ZM151.683 18.1159C152.537 16.2711 153.677 14.7269 155.109 13.5041C156.549 12.2698 158.165 11.3575 159.952 10.7722C161.718 10.1617 163.538 9.85597 165.407 9.85597C169.419 9.85597 172.672 10.9119 175.023 13.1541C177.391 15.3824 178.551 18.314 178.551 21.848C178.551 24.2656 178.131 26.4289 177.26 28.3124C176.435 30.1329 175.293 31.6761 173.834 32.9272L173.832 32.9285C172.423 34.1313 170.825 35.041 169.046 35.657L169.038 35.6598L169.03 35.6625C167.265 36.2394 165.448 36.528 163.583 36.528C159.54 36.528 156.269 35.4726 153.916 33.2273C151.578 30.9956 150.439 28.0474 150.439 24.488C150.439 22.1044 150.842 19.9744 151.68 18.1235L151.683 18.1159ZM176.351 27.896C177.151 26.168 177.551 24.152 177.551 21.848C177.551 18.552 176.479 15.896 174.335 13.88C172.223 11.864 169.247 10.856 165.407 10.856C163.647 10.856 161.935 11.144 160.271 11.72C158.607 12.264 157.103 13.112 155.759 14.264C154.447 15.384 153.391 16.808 152.591 18.536C151.823 20.232 151.439 22.216 151.439 24.488C151.439 27.816 152.495 30.488 154.607 32.504C156.719 34.52 159.711 35.528 163.583 35.528C165.343 35.528 167.055 35.256 168.719 34.712C170.383 34.136 171.871 33.288 173.183 32.168C174.527 31.016 175.583 29.592 176.351 27.896ZM167.19 18.9454L167.183 18.9362C166.768 18.4389 166.163 18.144 165.215 18.144C163.983 18.144 163.023 18.6672 162.263 19.8457L162.258 19.8543C161.468 21.0533 161.031 22.6686 161.031 24.776C161.031 26.0752 161.319 26.9144 161.752 27.4386C162.207 27.9545 162.827 28.24 163.727 28.24C164.999 28.24 165.971 27.7097 166.726 26.5383C167.524 25.3004 167.959 23.6787 167.959 21.608C167.959 20.3114 167.656 19.4775 167.198 18.9545L167.19 18.9454ZM180.558 18.1159C181.412 16.2711 182.552 14.7269 183.984 13.5041C185.424 12.2698 187.04 11.3575 188.827 10.7722C190.593 10.1617 192.413 9.85597 194.282 9.85597C198.294 9.85597 201.547 10.9118 203.897 13.1538C206.266 15.3822 207.426 18.3139 207.426 21.848C207.426 24.2656 207.006 26.4289 206.135 28.3124C205.31 30.1329 204.168 31.6761 202.709 32.9272L202.707 32.9285C201.298 34.1313 199.7 35.041 197.921 35.657L197.913 35.6598L197.905 35.6625C196.14 36.2394 194.323 36.528 192.458 36.528C188.415 36.528 185.144 35.4726 182.791 33.2273C180.453 30.9956 179.314 28.0474 179.314 24.488C179.314 22.1044 179.717 19.9744 180.555 18.1235L180.558 18.1159ZM205.226 27.896C206.026 26.168 206.426 24.152 206.426 21.848C206.426 18.552 205.354 15.896 203.21 13.88C201.098 11.864 198.122 10.856 194.282 10.856C192.522 10.856 190.81 11.144 189.146 11.72C187.482 12.264 185.978 13.112 184.634 14.264C183.322 15.384 182.266 16.808 181.466 18.536C180.698 20.232 180.314 22.216 180.314 24.488C180.314 27.816 181.37 30.488 183.482 32.504C185.594 34.52 188.586 35.528 192.458 35.528C194.218 35.528 195.93 35.256 197.594 34.712C199.258 34.136 200.746 33.288 202.058 32.168C203.402 31.016 204.458 29.592 205.226 27.896ZM196.065 18.9454L196.058 18.9362C195.643 18.4389 195.038 18.144 194.09 18.144C192.858 18.144 191.898 18.6672 191.138 19.8457L191.133 19.8543C190.343 21.0533 189.906 22.6686 189.906 24.776C189.906 26.0752 190.194 26.9143 190.626 27.4386C191.082 27.9545 191.702 28.24 192.602 28.24C193.874 28.24 194.846 27.7097 195.601 26.5383C196.399 25.3004 196.834 23.6787 196.834 21.608C196.834 20.3114 196.531 19.4775 196.073 18.9545L196.065 18.9454ZM210.511 25.1927L210.511 25.1916L211.571 18.672H207.157L208.486 10.384H212.897L213.953 3.51997H224.52L223.464 10.384H230.288L228.959 18.672H222.14L221.079 25.1688C220.91 26.33 221.121 26.8725 221.356 27.1225C221.72 27.4356 222.32 27.664 223.307 27.664C223.951 27.664 224.698 27.5426 225.554 27.2769L226.8 26.8901L227.115 35.1879L226.52 35.4708C225.752 35.8367 224.879 36.1 223.914 36.2724C222.963 36.4422 222.024 36.528 221.099 36.528C218.557 36.528 216.388 36.0777 214.656 35.1036C212.935 34.1352 211.699 32.7641 211.001 31C210.313 29.2638 210.169 27.316 210.511 25.1927ZM220.667 27.848C220.09 27.272 219.898 26.328 220.09 25.016L221.29 17.672H228.106L229.115 11.384H222.299L223.354 4.51997H214.811L213.755 11.384H209.339L208.33 17.672H212.746L211.498 25.352C211.178 27.336 211.323 29.096 211.931 30.632C212.538 32.168 213.611 33.368 215.146 34.232C216.683 35.096 218.667 35.528 221.099 35.528C221.963 35.528 222.842 35.448 223.739 35.288C224.634 35.128 225.419 34.888 226.09 34.568L225.851 28.232C225.509 28.3378 225.179 28.4242 224.86 28.4912C224.31 28.6064 223.792 28.664 223.307 28.664C222.155 28.664 221.274 28.392 220.667 27.848ZM239.756 35.3952C239.13 35.0493 238.573 34.632 238.087 34.1458L237.773 36H227.453L233.146 0.159973H243.717L241.877 11.6207C242.301 11.3344 242.749 11.0821 243.219 10.8644C244.609 10.189 246.117 9.85597 247.728 9.85597C250.644 9.85597 253.045 10.8886 254.822 12.9871C256.621 15.0427 257.464 17.7966 257.464 21.128C257.464 24.0016 256.946 26.6103 255.886 28.9348C254.827 31.2579 253.324 33.1165 251.371 34.4766C249.395 35.8529 247.095 36.528 244.512 36.528C242.768 36.528 241.178 36.1605 239.766 35.4004L239.756 35.3952ZM243.648 11.768C242.921 12.1033 242.255 12.5308 241.647 13.0505C241.212 13.4235 240.806 13.844 240.432 14.312L242.544 1.15997H234L228.624 35H236.928L237.504 31.592C237.728 32.0636 237.993 32.494 238.3 32.8831C238.825 33.55 239.472 34.0956 240.24 34.52C241.488 35.192 242.912 35.528 244.512 35.528C246.912 35.528 249.008 34.904 250.8 33.656C252.592 32.408 253.984 30.696 254.976 28.52C255.968 26.344 256.464 23.88 256.464 21.128C256.464 17.96 255.664 15.464 254.064 13.64C252.496 11.784 250.384 10.856 247.728 10.856C246.256 10.856 244.896 11.16 243.648 11.768ZM246.103 18.9454L246.096 18.9362C245.676 18.4323 245.082 18.144 244.176 18.144C242.904 18.144 241.931 18.6743 241.177 19.8457C240.379 21.0835 239.944 22.7053 239.944 24.776C239.944 26.0751 240.232 26.9142 240.665 27.4385C241.115 27.9482 241.747 28.24 242.688 28.24C243.92 28.24 244.88 27.7168 245.639 26.5383C246.437 25.3004 246.872 23.6787 246.872 21.608C246.872 20.3114 246.569 19.4775 246.111 18.9545L246.103 18.9454ZM239.904 28.088C239.264 27.32 238.944 26.216 238.944 24.776C238.944 22.568 239.408 20.744 240.336 19.304C241.264 17.864 242.544 17.144 244.176 17.144C245.328 17.144 246.224 17.528 246.864 18.296C247.536 19.064 247.872 20.168 247.872 21.608C247.872 23.816 247.408 25.64 246.48 27.08C245.552 28.52 244.288 29.24 242.688 29.24C241.504 29.24 240.576 28.856 239.904 28.088ZM258.745 32.2714L258.736 32.2574C257.939 30.9532 257.534 29.5415 257.534 28.04C257.534 26.6464 257.834 25.3871 258.477 24.302C259.121 23.2166 260.073 22.3648 261.282 21.7323C263.648 20.4625 267.178 19.888 271.734 19.888H274.108C274.134 19.3303 273.955 18.973 273.655 18.7015L273.646 18.6933L273.637 18.685C273.273 18.3396 272.534 18.048 271.158 18.048C268.533 18.048 265.95 18.7618 263.398 20.2202L262.284 20.8566L260.159 13.2584L260.763 12.8559C262.133 11.9427 263.878 11.2338 265.962 10.7041C268.089 10.1395 270.222 9.85597 272.358 9.85597C275.373 9.85597 277.861 10.3997 279.717 11.6004C281.536 12.7775 282.775 14.3887 283.391 16.4112C284.021 18.3413 284.134 20.4223 283.76 22.634C283.76 22.6356 283.76 22.6372 283.76 22.6388L281.661 36H271.719L271.886 34.9212C271.589 35.1396 271.276 35.3339 270.947 35.503C269.641 36.1912 268.201 36.528 266.646 36.528C264.951 36.528 263.399 36.1376 262.017 35.3374C260.673 34.5593 259.58 33.5415 258.754 32.2852L258.745 32.2714ZM272.124 33.385C272.605 32.8849 273.034 32.2872 273.414 31.592L272.886 35H280.806L282.774 22.472C283.126 20.392 283.014 18.472 282.438 16.712C281.894 14.92 280.806 13.496 279.174 12.44C277.542 11.384 275.27 10.856 272.358 10.856C270.31 10.856 268.262 11.128 266.214 11.672C264.198 12.184 262.566 12.856 261.318 13.688L262.902 19.352C263.202 19.1805 263.503 19.0186 263.804 18.8663C266.205 17.6541 268.656 17.048 271.158 17.048C272.63 17.048 273.686 17.352 274.326 17.96C274.998 18.568 275.238 19.4 275.046 20.456L274.998 20.888H271.734C267.222 20.888 263.894 21.464 261.75 22.616C259.606 23.736 258.534 25.544 258.534 28.04C258.534 29.352 258.886 30.584 259.59 31.736C260.326 32.856 261.302 33.768 262.518 34.472C263.734 35.176 265.11 35.528 266.646 35.528C268.054 35.528 269.334 35.224 270.486 34.616C271.085 34.3082 271.631 33.8979 272.124 33.385ZM268.3 26.4349L268.293 26.4384C268.053 26.5584 267.919 26.693 267.839 26.8265C267.758 26.9625 267.694 27.1607 267.694 27.464C267.694 28.0017 267.859 28.3225 268.132 28.5527C268.459 28.7976 268.929 28.96 269.622 28.96C270.659 28.96 271.428 28.6611 272.017 28.12C272.612 27.5718 273.006 26.8558 273.177 25.92H271.734C269.973 25.92 268.883 26.1319 268.307 26.4312L268.3 26.4349ZM274.182 25.976C273.99 27.16 273.494 28.12 272.694 28.856C271.894 29.592 270.87 29.96 269.622 29.96C268.758 29.96 268.054 29.752 267.51 29.336C266.966 28.888 266.694 28.264 266.694 27.464C266.694 26.568 267.078 25.928 267.846 25.544C268.646 25.128 269.942 24.92 271.734 24.92H274.326L274.182 25.976ZM287.678 33.614L287.671 33.6051C286.084 31.6027 285.67 28.8117 286.17 25.4451L286.171 25.4348L290.193 0.159973H300.764L296.692 25.5935C296.692 25.5957 296.692 25.5979 296.691 25.6001C296.55 26.5659 296.712 27.0451 296.894 27.2741C297.06 27.4826 297.426 27.712 298.295 27.712C298.581 27.712 298.868 27.6976 299.155 27.6689L299.164 27.668C299.514 27.6363 299.847 27.6046 300.163 27.5729L301.469 27.4424L300.038 35.8416L299.427 36.0115C298.17 36.3605 296.765 36.528 295.223 36.528C291.922 36.528 289.316 35.6328 287.678 33.614ZM295.703 25.448L299.591 1.15997H291.047L287.159 25.592C286.679 28.824 287.111 31.288 288.455 32.984C289.831 34.68 292.087 35.528 295.223 35.528C296.695 35.528 298.007 35.368 299.159 35.048L300.263 28.568C299.943 28.6 299.607 28.632 299.255 28.664C299.247 28.6647 299.239 28.6655 299.232 28.6663C298.919 28.6967 298.607 28.712 298.295 28.712C296.247 28.712 295.383 27.624 295.703 25.448ZM304.366 33.614L304.359 33.6051C302.772 31.6027 302.357 28.8117 302.857 25.4451L302.859 25.4348L306.881 0.159973H317.451L313.38 25.5935C313.379 25.5957 313.379 25.5979 313.379 25.6001C313.238 26.5659 313.4 27.0451 313.581 27.2741C313.747 27.4826 314.114 27.712 314.982 27.712C315.269 27.712 315.556 27.6976 315.843 27.6689L315.852 27.668C316.201 27.6363 316.534 27.6046 316.851 27.5729L318.157 27.4424L316.726 35.8416L316.114 36.0115C314.857 36.3605 313.453 36.528 311.91 36.528C308.61 36.528 306.004 35.6328 304.366 33.614ZM312.39 25.448L316.278 1.15997H307.734L303.846 25.592C303.366 28.824 303.798 31.288 305.142 32.984C306.518 34.68 308.774 35.528 311.91 35.528C313.382 35.528 314.694 35.368 315.846 35.048L316.95 28.568C316.63 28.6 316.294 28.632 315.942 28.664C315.935 28.6647 315.927 28.6655 315.919 28.6663C315.607 28.6967 315.295 28.712 314.982 28.712C312.934 28.712 312.07 27.624 312.39 25.448ZM167.567 27.08C166.639 28.52 165.359 29.24 163.727 29.24C162.575 29.24 161.663 28.856 160.991 28.088C160.351 27.32 160.031 26.216 160.031 24.776C160.031 22.536 160.495 20.712 161.423 19.304C162.351 17.864 163.615 17.144 165.215 17.144C166.399 17.144 167.311 17.528 167.951 18.296C168.623 19.064 168.959 20.168 168.959 21.608C168.959 23.816 168.495 25.64 167.567 27.08ZM196.442 27.08C195.514 28.52 194.234 29.24 192.602 29.24C191.45 29.24 190.538 28.856 189.866 28.088C189.226 27.32 188.906 26.216 188.906 24.776C188.906 22.536 189.37 20.712 190.298 19.304C191.226 17.864 192.49 17.144 194.09 17.144C195.274 17.144 196.186 17.528 196.826 18.296C197.498 19.064 197.834 20.168 197.834 21.608C197.834 23.816 197.37 25.64 196.442 27.08Z" fill="white"/>
</svg>
